<?xml version="1.0" standalone="no"?>
<!DOCTYPE svg PUBLIC "-//W3C//DTD SVG 1.1//EN" "http://www.w3.org/Graphics/SVG/1.1/DTD/svg11.dtd" >
<svg xmlns="http://www.w3.org/2000/svg">
<metadata></metadata>
<defs>
<font id="ARSNoveltyBold" horiz-adv-x="1179" >
<font-face units-per-em="2048" ascent="1536" descent="-512" />
<missing-glyph horiz-adv-x="518" />
<glyph unicode="&#xfb01;" horiz-adv-x="1140" d="M41 774v250h139v33q0 77 28.5 146t87 127.5t161 93t237.5 34.5q175 0 262.5 -51t87.5 -127q0 -64 -45.5 -101.5t-115.5 -37.5q-107 0 -142 63q14 23 14.5 51t-11.5 54t-47 43.5t-87 17.5q-81 0 -132.5 -48.5t-51.5 -143.5q0 -81 31 -154h575v-1024h-276v774h-299v-774 h-277v774h-139z" />
<glyph unicode="&#xfb02;" horiz-adv-x="1181" d="M41 774v250h139v33q0 61 16 117.5t52 108.5t89 90.5t134 61.5t180 23q96 0 183 -24h239v-1434h-276v1217q0 19 -9.5 42.5t-29.5 49t-59 42.5t-91 17q-91 0 -138.5 -50.5t-47.5 -131.5q0 -80 35 -162h194v-250h-194v-774h-277v774h-139z" />
<glyph unicode="&#xfb03;" horiz-adv-x="1736" d="M41 774v250h139v31q0 180 100.5 291.5t243.5 111.5q85 0 133 -40t48 -103q0 -61 -39 -107.5t-111 -46.5q-78 0 -102 49q11 37 -13.5 69t-64.5 32q-38 0 -64 -29.5t-26 -75.5q0 -70 58.5 -126t143.5 -56h289v33q0 77 28.5 146t87 127.5t161 93t237.5 34.5q175 0 262.5 -51 t87.5 -127q0 -64 -45.5 -101.5t-115.5 -37.5q-107 0 -142 63q14 23 14.5 51t-11.5 54t-47 43.5t-87 17.5q-81 0 -132.5 -48.5t-51.5 -143.5q0 -81 31 -154h575v-1024h-276v774h-299v-774h-277v774h-319v-774h-277v774h-139z" />
<glyph unicode="&#xfb04;" horiz-adv-x="1777" d="M41 774v250h139v31q0 180 100.5 291.5t243.5 111.5q85 0 133 -40t48 -103q0 -61 -39 -107.5t-111 -46.5q-78 0 -102 49q11 37 -13.5 69t-64.5 32q-38 0 -64 -29.5t-26 -75.5q0 -70 58.5 -126t143.5 -56h289v33q0 61 16 117.5t52 108.5t89 90.5t134 61.5t180 23 q96 0 183 -24h239v-1434h-276v1217q0 19 -9.5 42.5t-29.5 49t-59 42.5t-91 17q-91 0 -138.5 -50.5t-47.5 -131.5q0 -80 35 -162h194v-250h-194v-774h-277v774h-319v-774h-277v774h-139z" />
<glyph horiz-adv-x="0" />
<glyph horiz-adv-x="2048" />
<glyph unicode=" "  horiz-adv-x="518" />
<glyph unicode="&#x09;" horiz-adv-x="518" />
<glyph unicode="&#xa0;" horiz-adv-x="518" />
<glyph unicode="!" horiz-adv-x="516" d="M80 158q0 75 51.5 126.5t126.5 51.5q74 0 126 -51.5t52 -126.5q0 -74 -52 -126t-126 -52q-75 0 -126.5 52t-51.5 126zM119 494v940h276v-940h-276z" />
<glyph unicode="&#x22;" horiz-adv-x="882" d="M109 774v660h313l-217 -660h-96zM516 774v660h313l-217 -660h-96z" />
<glyph unicode="#" d="M41 326v102h197l141 346h-215v103h258l133 325h109l-134 -325h324l133 325h109l-133 -325h153v-103h-196l-142 -346h215v-102h-258l-133 -326h-108l133 326h-324l-133 -326h-109l134 326h-154zM346 428h324l141 346h-324z" />
<glyph unicode="$" d="M158 795q0 155 103.5 244t275.5 89q64 0 170 -20l63 211h100l-67 -225q40 -4 63 -4q55 0 99 10v-264q-31 -5 -76 -5q-74 0 -160 21l-49 -166q81 -25 137 -53t101.5 -68.5t67.5 -96.5t22 -130q0 -120 -60 -203.5t-156 -120.5t-219 -37q-30 0 -104 9l-57 -191h-101l62 207 q-123 29 -211 94v293q62 -57 127.5 -95.5t154.5 -55.5l64 215q-86 24 -146.5 51t-108.5 67t-71.5 95.5t-23.5 128.5zM418 825q0 -19 9.5 -34.5t21 -25.5t38.5 -20.5t44.5 -15.5t56.5 -16l49 161q-78 19 -117 19q-102 0 -102 -68zM541 227h26q93 0 134.5 23.5t41.5 71.5 q0 24 -9 40.5t-30.5 29t-42 19.5t-59.5 17z" />
<glyph unicode="%" horiz-adv-x="1472" d="M61 893q0 135 95.5 230.5t230.5 95.5t230.5 -95.5t95.5 -230.5t-95.5 -230.5t-230.5 -95.5t-230.5 95.5t-95.5 230.5zM150 0l1044 1202h129l-1047 -1202h-126zM242 893q0 -60 42.5 -102.5t102.5 -42.5t102.5 42.5t42.5 102.5t-42.5 102.5t-102.5 42.5t-102.5 -42.5 t-42.5 -102.5zM760 311q0 135 95 230.5t230 95.5t230.5 -95.5t95.5 -230.5t-95.5 -230t-230.5 -95t-230 95t-95 230zM940 311q0 -60 42.5 -102.5t102.5 -42.5t103 42.5t43 102.5t-43 103t-103 43t-102.5 -43t-42.5 -103z" />
<glyph unicode="&#x26;" horiz-adv-x="1449" d="M53 449q0 119 63 221t197 157q-88 108 -88 242q0 171 115 280t293 109q142 0 239 -67.5t97 -173.5q0 -67 -40.5 -112.5t-113.5 -45.5q-40 0 -73.5 13.5t-45.5 35.5q26 38 30 82.5t-11 81.5t-51.5 61.5t-85.5 24.5q-68 0 -119 -43.5t-51 -134.5q0 -95 57 -169t147 -124 q11 -6 120 -57t194.5 -107.5t152.5 -132.5q19 45 19 125q0 174 -109 309h314q61 -144 61 -305q0 -211 -96 -383q96 -172 96 -336h-270q0 59 -23 123q-189 -146 -455 -146q-133 0 -241.5 38.5t-177.5 104.5t-106.5 150.5t-37.5 178.5zM342 446q0 -86 78.5 -143t212.5 -57 q191 0 313 116q-85 102 -203 170t-223 68q-84 0 -131 -43.5t-47 -110.5z" />
<glyph unicode="'" horiz-adv-x="475" d="M109 774v660h313l-217 -660h-96z" />
<glyph unicode="(" horiz-adv-x="671" d="M82 522q0 167 41 324t110.5 280.5t152 219t173.5 161.5l59 -73q-83 -60 -158 -149t-138 -203.5t-100.5 -260.5t-37.5 -299t37.5 -298.5t100.5 -260t138 -203.5t158 -149l-59 -74q-91 66 -173.5 161.5t-152 219t-110.5 280.5t-41 324z" />
<glyph unicode=")" horiz-adv-x="671" d="M53 -389q83 60 158 149t138 203.5t100.5 260t37.5 298.5t-37.5 299t-100.5 260.5t-138 203.5t-158 149l60 73q91 -66 173.5 -161.5t152 -219t110.5 -280.5t41 -324t-41 -324t-110.5 -280.5t-152 -219t-173.5 -161.5z" />
<glyph unicode="*" horiz-adv-x="1056" d="M106 795q0 54 54 88q42 27 160.5 47t162.5 41q-44 21 -162.5 41t-160.5 47q-54 34 -54 88q0 41 31.5 74.5t75.5 33.5q27 0 51 -12q33 -16 74 -59.5t86 -94.5t82 -77q-5 47 -43.5 154t-38.5 159q0 55 28.5 84t75.5 29q48 0 76.5 -29t28.5 -84q0 -52 -38.5 -159t-43.5 -154 q37 26 82 77t86 94.5t74 59.5q24 12 51 12q44 0 75 -33.5t31 -74.5q0 -55 -53 -88q-42 -27 -161 -47t-163 -41q44 -21 163 -41t161 -47q53 -33 53 -88q0 -41 -31 -75t-75 -34q-27 0 -51 12q-33 16 -74 60t-86 95t-82 77q5 -47 43.5 -154.5t38.5 -159.5q0 -55 -28.5 -83.5 t-76.5 -28.5t-76 28.5t-28 83.5q0 52 38.5 159.5t43.5 154.5q-37 -26 -82 -77t-86 -95t-74 -60q-24 -12 -51 -12q-44 0 -75.5 34t-31.5 75z" />
<glyph unicode="+" d="M78 461v102h461v461h102v-461h461v-102h-461v-461h-102v461h-461z" />
<glyph unicode="," horiz-adv-x="518" d="M92 190q0 70 49.5 118t120.5 48q69 0 118.5 -49t49.5 -145q0 -64 -24.5 -126.5t-62.5 -110t-84 -88t-89 -65.5t-78 -36v67q62 89 62 168q0 50 -31 117q-31 64 -31 102z" />
<glyph unicode="-" horiz-adv-x="749" d="M80 389v246h590v-246h-590z" />
<glyph unicode="." horiz-adv-x="518" d="M80 158q0 75 51.5 126.5t126.5 51.5q74 0 126 -51.5t52 -126.5q0 -74 -52 -126t-126 -52q-75 0 -126.5 52t-51.5 126z" />
<glyph unicode="/" horiz-adv-x="913" d="M29 -389l747 1823h109l-748 -1823h-108z" />
<glyph unicode="0" horiz-adv-x="1204" d="M53 512q0 109 42.5 208t115.5 170.5t175 114t216 42.5q152 0 278.5 -72t198.5 -194.5t72 -268.5q0 -109 -42.5 -208t-115.5 -170.5t-175 -114t-216 -42.5q-152 0 -278.5 72t-198.5 194.5t-72 268.5zM338 512q0 -111 76 -189.5t188 -78.5q109 0 185.5 79t76.5 189 q0 112 -76.5 191t-185.5 79q-112 0 -188 -78.5t-76 -191.5z" />
<glyph unicode="1" horiz-adv-x="772" d="M61 774v250h588v-1024h-276v774h-312z" />
<glyph unicode="2" d="M53 0v88q619 314 619 555q0 65 -38 104t-95 39q-55 0 -92 -38t-37 -99q0 -23 2 -33h-271q0 5 -1 14.5t-1 22.5q0 162 119 278t291 116q170 0 286.5 -115.5t116.5 -282.5q0 -156 -106 -274q-27 -31 -61.5 -59.5t-54.5 -41.5l-21 -12h407v-262h-1063z" />
<glyph unicode="3" horiz-adv-x="1112" d="M33 -74q0 82 44.5 129t112.5 47q47 0 79.5 -19.5t45.5 -43.5q-36 -55 -36 -133q0 -93 61 -161.5t174 -68.5q67 0 118.5 26.5t81.5 70t45 94t15 104.5q0 104 -54.5 184.5t-142.5 123.5t-196 49v37l231 409h-524v250h961l-306 -537q156 -60 236 -173t80 -255 q0 -93 -33 -175.5t-97.5 -149.5t-171.5 -106.5t-243 -39.5q-116 0 -210 28.5t-152 77t-88.5 108t-30.5 124.5z" />
<glyph unicode="4" d="M49 0v88q73 72 128 135.5t111.5 152t92.5 180.5t59 212.5t23 255.5h297q0 -133 -23.5 -255.5t-63.5 -218.5t-84 -169t-95 -131h297v336h280v-975h-280v389h-742z" />
<glyph unicode="5" horiz-adv-x="1118" d="M37 -74q0 83 45.5 129.5t114.5 46.5q47 0 77.5 -19.5t44.5 -43.5q-34 -60 -34 -129q0 -95 57.5 -164.5t173.5 -69.5q71 0 125 28t84.5 74t45.5 99.5t15 110.5q0 147 -92 245.5t-252 98.5q-162 0 -282 -105l-64 39q51 159 66.5 338.5t15.5 419.5h821v-250h-563 q-3 -124 -33 -252q77 45 193 45q195 0 327 -136.5t132 -334.5q0 -75 -20.5 -146.5t-64.5 -137.5t-107.5 -115.5t-157 -79t-205.5 -29.5q-110 0 -200 28.5t-146.5 76.5t-86.5 108t-30 125z" />
<glyph unicode="6" d="M55 502q0 152 90 301l136 221q23 38 58.5 101t57.5 101t55 85.5t61.5 73.5t67.5 44.5t81 18.5q68 0 108.5 -41t40.5 -100t-40 -100.5t-107 -41.5q-35 0 -46 11q2 24 -19 46.5t-60 22.5q-41 0 -68 -29t-27 -71q0 -53 42 -87t104 -34q152 0 275 -70t191 -189.5t68 -262.5 q0 -144 -68 -263.5t-191 -190.5t-275 -71q-153 0 -276.5 71.5t-191 191t-67.5 262.5zM344 502q0 -107 70 -181.5t176 -74.5q105 0 175.5 74.5t70.5 181.5q0 108 -70.5 183t-175.5 75q-106 0 -176 -75t-70 -183z" />
<glyph unicode="7" horiz-adv-x="1099" d="M49 774v250h1049l-582 -1024q-145 0 -221 -59t-76 -129q0 -35 21 -57.5t55 -22.5q28 0 44 15t16.5 34t-7.5 37q27 45 96 45q57 0 94 -37.5t37 -91.5q0 -62 -48.5 -104t-129.5 -42q-102 0 -176 66t-74 166q0 79 58 180l440 774h-596z" />
<glyph unicode="8" d="M70 446q0 122 56.5 222t145.5 147q-96 99 -96 238q0 169 117.5 287t296.5 118t296.5 -118t117.5 -287q0 -138 -97 -238q89 -47 146 -147.5t57 -221.5q0 -94 -37 -179t-103 -149.5t-165 -102.5t-215 -38t-215 38t-165 102.5t-103 149.5t-37 179zM358 463q0 -38 11.5 -73.5 t36.5 -69t72.5 -54t111.5 -20.5t111.5 20.5t72 54t36 69t11.5 73.5q0 106 -65 166h-332q-66 -61 -66 -166zM406 1165q0 -100 79 -196l74 -90h62l73 90q80 97 80 196q0 87 -48 144t-136 57t-136 -57t-48 -144z" />
<glyph unicode="9" d="M55 522q0 143 68 263t191.5 191t275.5 71q153 0 276 -71t190.5 -190.5t67.5 -263.5q0 -152 -90 -301l-135 -221q-22 -37 -55.5 -96.5t-54.5 -95.5t-52 -80.5t-58 -69t-63.5 -42t-76.5 -17.5q-68 0 -109 41t-41 102q0 58 38 98.5t103 40.5q42 0 52 -10q-5 -28 15.5 -50 t57.5 -22q35 0 58.5 25t23.5 61q0 50 -37.5 82.5t-109.5 32.5q-114 0 -214.5 41t-170.5 111.5t-110 166.5t-40 203zM344 522q0 -108 70.5 -183t175.5 -75q106 0 176 75t70 183q0 107 -70 181.5t-176 74.5q-105 0 -175.5 -74.5t-70.5 -181.5z" />
<glyph unicode=":" horiz-adv-x="552" d="M98 158q0 75 52 126.5t126 51.5q75 0 127 -51.5t52 -126.5q0 -74 -52 -126t-127 -52q-74 0 -126 52t-52 126zM98 866q0 74 52 126t126 52q75 0 127 -52t52 -126t-52 -126t-127 -52q-74 0 -126 52t-52 126z" />
<glyph unicode=";" horiz-adv-x="552" d="M98 866q0 74 52 126t126 52q75 0 127 -52t52 -126t-52 -126t-127 -52q-74 0 -126 52t-52 126zM115 190q0 70 49 118t119 48t119 -49t49 -145q0 -64 -24.5 -126.5t-62.5 -110t-84 -88t-88 -65.5t-77 -36v67q61 92 61 168q0 43 -31 117q-30 62 -30 102z" />
<glyph unicode="&#x3c;" d="M246 512l510 512h147l-514 -512l514 -512h-147z" />
<glyph unicode="=" horiz-adv-x="1228" d="M78 256v102h1024v-102h-1024zM78 666v102h1024v-102h-1024z" />
<glyph unicode="&#x3e;" d="M276 0l515 512l-515 512h148l510 -512l-510 -512h-148z" />
<glyph unicode="?" horiz-adv-x="905" d="M68 1182q0 121 103.5 198.5t258.5 77.5q182 0 302 -109.5t120 -289.5q0 -137 -76 -241.5t-235 -205.5q-1 -1 -18 -11t-32.5 -19.5t-38.5 -24t-43 -27.5t-38.5 -26.5t-31.5 -25t-17 -19.5h-11q-49 92 -49 164q0 27 5 50.5t18.5 45.5t23 36.5t33.5 35t34 29t40 30.5t37 27 l20 14q92 65 144.5 132t52.5 155q0 93 -58 140.5t-131 47.5q-56 0 -97 -29.5t-59.5 -73t-15 -97t30.5 -99.5q-12 -22 -45.5 -35.5t-73.5 -13.5q-74 0 -113.5 46t-39.5 118zM193 158q0 75 51.5 126.5t126.5 51.5q74 0 126 -51.5t52 -126.5q0 -74 -52.5 -126t-125.5 -52 q-75 0 -126.5 52t-51.5 126z" />
<glyph unicode="@" horiz-adv-x="1771" d="M78 537q0 240 112.5 433.5t307 301.5t430.5 108q213 0 385.5 -88t272.5 -252.5t100 -375.5q0 -102 -24.5 -191t-65 -151.5t-92 -107t-106.5 -66t-108 -21.5q-56 0 -101 24t-71 70q-46 -53 -119.5 -82.5t-158.5 -29.5q-116 0 -212.5 58t-151 156.5t-54.5 213.5t55 213.5 t151 156.5t210 58q153 0 249 -107v88h222v-557q0 -40 18.5 -61t48.5 -21q25 0 53 14.5t55.5 45t49.5 72.5t35.5 103.5t13.5 131.5q0 179 -86.5 317.5t-234.5 212.5t-332 74q-210 0 -380.5 -95t-268 -264.5t-97.5 -381.5q0 -215 101 -387t278.5 -267.5t397.5 -95.5 q201 0 382.5 78.5t292.5 210.5v-137q-125 -116 -303.5 -185t-374.5 -69q-184 0 -346.5 63.5t-280 175t-185.5 271t-68 342.5zM655 537q0 -89 64 -153.5t153 -64.5t152 64t63 154q0 89 -63 153t-152 64t-153 -64t-64 -153z" />
<glyph unicode="A" horiz-adv-x="1122" d="M57 291q0 79 37.5 146t108.5 108q102 57 260 57q151 0 274 -45v217h-602v250h879v-1024h-277v98q-115 -121 -305 -121q-172 0 -273.5 89.5t-101.5 224.5zM346 309q0 -48 43 -70t103 -22q80 0 146.5 42t98.5 112v2q-115 35 -213 35q-81 0 -129.5 -24t-48.5 -75z" />
<glyph unicode="B" horiz-adv-x="1267" d="M109 0v1434h276v-521q116 134 309 134q145 0 264.5 -72.5t187.5 -195t68 -267.5t-68 -267.5t-187.5 -195t-264.5 -72.5q-193 0 -309 134v-111h-276zM385 512q0 -111 79 -190.5t191 -79.5q110 0 189.5 80t79.5 190q0 112 -79 191t-190 79q-113 0 -191.5 -79t-78.5 -191z " />
<glyph unicode="C" horiz-adv-x="1075" d="M53 512q0 162 73.5 285.5t192.5 186.5t261 63q66 0 199 -27q86 -17 150 -17q36 0 64 5v-273q-54 -7 -94 -7q-33 0 -57 5q-52 11 -123.5 31t-118.5 20q-108 0 -181 -71.5t-73 -190.5q0 -124 79 -200t202 -76q96 0 193 45t173 115v-297q-167 -132 -389 -132q-154 0 -278 63 t-198.5 186t-74.5 286z" />
<glyph unicode="D" horiz-adv-x="1269" d="M53 512q0 145 68.5 267.5t188.5 195t265 72.5q194 0 310 -134v521h276v-1434h-276v111q-116 -134 -310 -134q-145 0 -265 72.5t-188.5 195t-68.5 267.5zM346 512q0 -110 79 -190t189 -80q112 0 191.5 79.5t79.5 190.5q0 112 -79 191t-192 79q-111 0 -189.5 -79 t-78.5 -191z" />
<glyph unicode="E" horiz-adv-x="1095" d="M55 504q0 237 152.5 390t400.5 153q190 0 300 -91t110 -223q0 -76 -36.5 -137.5t-96.5 -93.5q-91 -49 -271 -49q-165 0 -270 32q4 -118 85.5 -182.5t221.5 -64.5q208 0 363 159v-301q-70 -54 -171 -86.5t-220 -32.5q-178 0 -308.5 71t-195 189t-64.5 267zM371 664 q74 -17 178 -17q92 0 136 16.5t44 61.5q0 43 -37.5 62.5t-95.5 19.5q-168 0 -225 -143z" />
<glyph unicode="F" horiz-adv-x="698" d="M41 774v250h139v106q0 89 30 155t82 102.5t111 53.5t127 17q89 0 195 -31v-264q-80 41 -156 41q-52 0 -82 -24.5t-30 -67.5v-88h194v-250h-194v-774h-277v774h-139z" />
<glyph unicode="G" horiz-adv-x="1052" d="M14 -186q0 67 51 117t162 69q-88 29 -132 89t-44 126q0 69 48 130.5t137 90.5q-132 94 -132 269q0 147 104.5 244.5t297.5 97.5q41 0 88 -7q104 -16 291 -16h139v-248q-61 0 -125 10q10 -45 10 -81q0 -148 -105.5 -246.5t-297.5 -98.5h-123q-37 0 -58.5 -16.5 t-21.5 -40.5t20.5 -38.5t55.5 -14.5h352q78 0 138 -23t94.5 -60t51.5 -79.5t17 -87.5q0 -176 -162 -294t-428 -118q-82 0 -155.5 12.5t-136 38.5t-99.5 71t-37 104zM303 -92q0 -32 29 -54t71.5 -31t94.5 -9q95 0 165 30t70 86q0 70 -131 70h-141q-77 0 -117.5 -27t-40.5 -65 zM379 705q0 -49 32.5 -81t94.5 -32q63 0 96 32t33 81q0 47 -33 77.5t-96 30.5q-62 0 -94.5 -30.5t-32.5 -77.5z" />
<glyph unicode="H" horiz-adv-x="1163" d="M109 0v1434h276v-410h670v-1024h-277v774h-393v-774h-276z" />
<glyph unicode="I" horiz-adv-x="493" d="M88 1300q0 65 47 111.5t113 46.5q64 0 111 -47t47 -111q0 -66 -46.5 -112.5t-111.5 -46.5q-66 0 -113 46.5t-47 112.5zM109 0v1024h276v-1024h-276z" />
<glyph unicode="J" horiz-adv-x="493" d="M-20 -156q17 -10 40 -10q89 0 89 141v1049h276v-1032q0 -198 -84 -301t-217 -103q-52 0 -104 23v233zM88 1300q0 65 47 111.5t113 46.5q64 0 111 -47t47 -111q0 -66 -46.5 -112.5t-111.5 -46.5q-66 0 -113 46.5t-47 112.5z" />
<glyph unicode="K" horiz-adv-x="1171" d="M109 0v1434h276v-836l416 426h375l-504 -498l520 -526h-381l-426 444v-444h-276z" />
<glyph unicode="L" horiz-adv-x="493" d="M109 0v1434h276v-1434h-276z" />
<glyph unicode="M" horiz-adv-x="1568" d="M109 0v1024h303q204 0 372 -74q168 74 373 74h303v-1024h-276v774h-183q76 -113 76 -256q0 -164 -84.5 -265t-208.5 -101t-208 101t-84 265q0 147 73 256h-180v-774h-276zM705 522q0 -61 19.5 -108t59.5 -47t59 47t19 108q0 60 -20.5 119.5t-57.5 99.5q-38 -40 -58.5 -99 t-20.5 -120z" />
<glyph unicode="N" horiz-adv-x="1163" d="M109 0v1024h946v-1024h-277v774h-393v-774h-276z" />
<glyph unicode="O" horiz-adv-x="1212" d="M53 512q0 145 71 267.5t199 195t285 72.5q156 0 283 -72.5t197.5 -195t70.5 -267.5t-70.5 -267.5t-197.5 -195t-283 -72.5q-157 0 -285 72.5t-199 195t-71 267.5zM344 512q0 -111 76 -189.5t188 -78.5q109 0 185.5 79t76.5 189q0 112 -76.5 191t-185.5 79 q-112 0 -188 -78.5t-76 -191.5z" />
<glyph unicode="P" horiz-adv-x="1267" d="M109 -389v1413h276v-109q116 134 309 134q145 0 264.5 -72.5t187.5 -195t68 -267.5t-68 -267.5t-187.5 -194.5t-264.5 -72q-194 0 -309 133v-502h-276zM385 514q0 -111 79 -189.5t191 -78.5q110 0 189.5 79t79.5 189q0 112 -79 191t-190 79q-113 0 -191.5 -79t-78.5 -191 z" />
<glyph unicode="Q" horiz-adv-x="1269" d="M53 512q0 145 68.5 267.5t188.5 195t265 72.5q194 0 310 -134v111h276v-1419h-276v506q-116 -134 -310 -134q-145 0 -265 72.5t-188.5 195t-68.5 267.5zM346 512q0 -110 79 -190t189 -80q112 0 191.5 79.5t79.5 190.5q0 112 -79 191t-192 79q-111 0 -189.5 -79 t-78.5 -191z" />
<glyph unicode="R" horiz-adv-x="712" d="M109 0v1024h563v-250h-287v-774h-276z" />
<glyph unicode="S" horiz-adv-x="931" d="M76 741q0 136 96.5 221t253.5 85q59 0 154.5 -19.5t150.5 -19.5q49 0 90 10v-264q-23 -4 -67 -4q-73 0 -180 30.5t-140 30.5q-35 0 -55.5 -15t-20.5 -40q0 -21 20 -38.5t41.5 -26t65.5 -23.5q42 -14 65 -22t61 -23t59.5 -26.5t52 -29.5t48 -35.5t38 -41.5t31 -50 t17.5 -59t7 -70q0 -109 -55 -186t-144 -112.5t-202 -35.5q-111 0 -212.5 33t-170.5 86v293q65 -67 161.5 -114.5t207.5 -47.5q129 0 129 76q0 39 -31.5 57.5t-110.5 40.5q-57 16 -102 33t-95.5 46t-84 63.5t-56 85.5t-22.5 112z" />
<glyph unicode="T" horiz-adv-x="800" d="M41 774v250h139v307h277v-307h264v-250h-264v-436q0 -94 92 -94q46 0 94 20.5t80 54.5v-264q-96 -71 -248 -71q-60 0 -110 14.5t-93 45t-67.5 86.5t-24.5 132v512h-139z" />
<glyph unicode="U" horiz-adv-x="1138" d="M98 430v594h277v-573q0 -90 55 -148.5t139 -58.5q85 0 140 59t55 148v573h276v-594q0 -194 -134.5 -323.5t-336.5 -129.5t-336.5 129.5t-134.5 323.5z" />
<glyph unicode="V" horiz-adv-x="1110" d="M-20 1024h307l268 -518l268 518h307l-546 -1047h-58z" />
<glyph unicode="W" horiz-adv-x="1597" d="M-16 1024h307l266 -535l59 115q25 49 25 80q0 20 -14.5 66.5t-14.5 85.5q0 87 51.5 140.5t135.5 53.5q83 0 134.5 -53.5t51.5 -138.5q0 -36 -13.5 -85t-13.5 -71q0 -33 23 -78l59 -115l267 535h307l-537 -1047h-57l-221 431l-221 -431h-58z" />
<glyph unicode="X" horiz-adv-x="1155" d="M4 0l410 539l-369 485h317l216 -297l215 297h317l-369 -485l410 -539h-322l-251 330l-252 -330h-322z" />
<glyph unicode="Y" horiz-adv-x="1122" d="M-8 1024h307l268 -518l269 518h307l-537 -1026q-119 -227 -212.5 -315.5t-209.5 -88.5q-76 0 -153 39v252q55 -30 108 -30q58 0 112.5 72.5t162.5 285.5z" />
<glyph unicode="Z" horiz-adv-x="1024" d="M0 0l510 774h-459v250h953l-512 -774h491v-250h-983z" />
<glyph unicode="[" horiz-adv-x="552" d="M109 -463v1970h370v-86h-268v-1798h268v-86h-370z" />
<glyph unicode="\" horiz-adv-x="913" d="M29 1434h108l748 -1823h-109z" />
<glyph unicode="]" horiz-adv-x="552" d="M74 -377h268v1798h-268v86h370v-1970h-370v86z" />
<glyph unicode="^" d="M66 932l526 526l524 -526l-72 -72l-452 455l-455 -455z" />
<glyph unicode="_" d="M0 -154h1180v-102h-1180v102z" />
<glyph unicode="`" horiz-adv-x="501" d="M43 1356q0 52 40 88.5t99 36.5q31 0 56 -10t40.5 -23t29.5 -36.5t19.5 -38t14.5 -41.5t12 -34l64 -178h-131l-162 107q-82 54 -82 129z" />
<glyph unicode="a" horiz-adv-x="1122" d="M57 291q0 79 37.5 146t108.5 108q102 57 260 57q151 0 274 -45v217h-602v250h879v-1024h-277v98q-115 -121 -305 -121q-172 0 -273.5 89.5t-101.5 224.5zM346 309q0 -48 43 -70t103 -22q80 0 146.5 42t98.5 112v2q-115 35 -213 35q-81 0 -129.5 -24t-48.5 -75z" />
<glyph unicode="b" horiz-adv-x="1267" d="M109 0v1434h276v-521q116 134 309 134q145 0 264.5 -72.5t187.5 -195t68 -267.5t-68 -267.5t-187.5 -195t-264.5 -72.5q-193 0 -309 134v-111h-276zM385 512q0 -111 79 -190.5t191 -79.5q110 0 189.5 80t79.5 190q0 112 -79 191t-190 79q-113 0 -191.5 -79t-78.5 -191z " />
<glyph unicode="c" horiz-adv-x="1075" d="M53 512q0 162 73.5 285.5t192.5 186.5t261 63q66 0 199 -27q86 -17 150 -17q36 0 64 5v-273q-54 -7 -94 -7q-33 0 -57 5q-52 11 -123.5 31t-118.5 20q-108 0 -181 -71.5t-73 -190.5q0 -124 79 -200t202 -76q96 0 193 45t173 115v-297q-167 -132 -389 -132q-154 0 -278 63 t-198.5 186t-74.5 286z" />
<glyph unicode="d" horiz-adv-x="1269" d="M53 512q0 145 68.5 267.5t188.5 195t265 72.5q194 0 310 -134v521h276v-1434h-276v111q-116 -134 -310 -134q-145 0 -265 72.5t-188.5 195t-68.5 267.5zM346 512q0 -110 79 -190t189 -80q112 0 191.5 79.5t79.5 190.5q0 112 -79 191t-192 79q-111 0 -189.5 -79 t-78.5 -191z" />
<glyph unicode="e" horiz-adv-x="1095" d="M55 504q0 237 152.5 390t400.5 153q190 0 300 -91t110 -223q0 -76 -36.5 -137.5t-96.5 -93.5q-91 -49 -271 -49q-165 0 -270 32q4 -118 85.5 -182.5t221.5 -64.5q208 0 363 159v-301q-70 -54 -171 -86.5t-220 -32.5q-178 0 -308.5 71t-195 189t-64.5 267zM371 664 q74 -17 178 -17q92 0 136 16.5t44 61.5q0 43 -37.5 62.5t-95.5 19.5q-168 0 -225 -143z" />
<glyph unicode="f" horiz-adv-x="698" d="M41 774v250h139v31q0 180 106.5 291.5t256.5 111.5q91 0 143.5 -42t52.5 -109q0 -59 -40 -102.5t-113 -43.5q-40 0 -73.5 13.5t-45.5 35.5q3 11 3 22q0 25 -16 47q-25 32 -65 32q-38 0 -64 -29.5t-26 -75.5q0 -70 59 -126t144 -56h149v-250h-194v-774h-277v774h-139z" />
<glyph unicode="g" horiz-adv-x="1052" d="M14 -186q0 67 51 117t162 69q-88 29 -132 89t-44 126q0 69 48 130.5t137 90.5q-132 94 -132 269q0 147 104.5 244.5t297.5 97.5q37 0 88 -7q104 -16 291 -16h139v-248q-61 0 -125 10q10 -45 10 -81q0 -148 -105.5 -246.5t-297.5 -98.5h-123q-37 0 -58.5 -16.5 t-21.5 -40.5t20.5 -38.5t55.5 -14.5h352q78 0 138 -23t94.5 -60t51.5 -79.5t17 -87.5q0 -176 -162 -294t-428 -118q-82 0 -155.5 12.5t-136 38.5t-99.5 71t-37 104zM248 -113q0 -87 92.5 -133.5t232.5 -46.5t218.5 51t78.5 127q0 54 -45.5 84.5t-132.5 30.5h-311 q-68 0 -100.5 -33.5t-32.5 -79.5zM379 705q0 -49 32.5 -81t94.5 -32q63 0 96 32t33 81q0 47 -33 77.5t-96 30.5q-62 0 -94.5 -30.5t-32.5 -77.5z" />
<glyph unicode="h" horiz-adv-x="1163" d="M109 0v1434h276v-410h670v-1024h-277v774h-393v-774h-276z" />
<glyph unicode="i" horiz-adv-x="493" d="M88 1300q0 65 47 111.5t113 46.5q64 0 111 -47t47 -111q0 -66 -46.5 -112.5t-111.5 -46.5q-66 0 -113 46.5t-47 112.5zM109 0v1024h276v-1024h-276z" />
<glyph unicode="j" horiz-adv-x="493" d="M-96 -266q0 54 37 91.5t94 37.5q69 0 96 -45q-10 -31 5.5 -58.5t53.5 -27.5q35 0 57.5 24.5t22.5 71.5q0 56 -44.5 105.5t-116.5 66.5v1024h276v-1032q0 -189 -86 -296.5t-219 -107.5q-80 0 -128 42t-48 104zM88 1300q0 65 47 111.5t113 46.5q64 0 111 -47t47 -111 q0 -66 -46.5 -112.5t-111.5 -46.5q-66 0 -113 46.5t-47 112.5z" />
<glyph unicode="k" horiz-adv-x="1171" d="M109 0v1434h276v-836l416 426h375l-504 -498l520 -526h-381l-426 444v-444h-276z" />
<glyph unicode="l" horiz-adv-x="493" d="M109 0v1434h276v-1434h-276z" />
<glyph unicode="m" horiz-adv-x="1568" d="M109 0v1024h303q204 0 372 -74q168 74 373 74h303v-1024h-276v774h-183q76 -113 76 -256q0 -164 -84.5 -265t-208.5 -101t-208 101t-84 265q0 147 73 256h-180v-774h-276zM705 522q0 -61 19.5 -108t59.5 -47t59 47t19 108q0 60 -20.5 119.5t-57.5 99.5q-38 -40 -58.5 -99 t-20.5 -120z" />
<glyph unicode="n" horiz-adv-x="1163" d="M109 0v1024h946v-1024h-277v774h-393v-774h-276z" />
<glyph unicode="o" horiz-adv-x="1212" d="M53 512q0 145 71 267.5t199 195t285 72.5q156 0 283 -72.5t197.5 -195t70.5 -267.5t-70.5 -267.5t-197.5 -195t-283 -72.5q-157 0 -285 72.5t-199 195t-71 267.5zM344 512q0 -111 76 -189.5t188 -78.5q109 0 185.5 79t76.5 189q0 112 -76.5 191t-185.5 79 q-112 0 -188 -78.5t-76 -191.5z" />
<glyph unicode="p" horiz-adv-x="1267" d="M109 -389v1413h276v-109q116 134 309 134q145 0 264.5 -72.5t187.5 -195t68 -267.5t-68 -267.5t-187.5 -194.5t-264.5 -72q-194 0 -309 133v-502h-276zM385 514q0 -111 79 -189.5t191 -78.5q110 0 189.5 79t79.5 189q0 112 -79 191t-190 79q-113 0 -191.5 -79t-78.5 -191 z" />
<glyph unicode="q" horiz-adv-x="1269" d="M53 512q0 145 68.5 267.5t188.5 195t265 72.5q194 0 310 -134v111h276v-1413h-276v500q-116 -134 -310 -134q-145 0 -265 72.5t-188.5 195t-68.5 267.5zM346 512q0 -110 79 -190t189 -80q112 0 191.5 79.5t79.5 190.5q0 112 -79 191t-192 79q-111 0 -189.5 -79 t-78.5 -191z" />
<glyph unicode="r" horiz-adv-x="712" d="M109 0v1024h563v-250h-287v-774h-276z" />
<glyph unicode="s" horiz-adv-x="931" d="M76 741q0 136 96.5 221t253.5 85q59 0 154.5 -19.5t150.5 -19.5q49 0 90 10v-264q-23 -4 -67 -4q-73 0 -180 30.5t-140 30.5q-35 0 -55.5 -15t-20.5 -40q0 -21 20 -38.5t41.5 -26t65.5 -23.5q42 -14 65 -22t61 -23t59.5 -26.5t52 -29.5t48 -35.5t38 -41.5t31 -50 t17.5 -59t7 -70q0 -109 -55 -186t-144 -112.5t-202 -35.5q-111 0 -212.5 33t-170.5 86v293q65 -67 161.5 -114.5t207.5 -47.5q129 0 129 76q0 39 -31.5 57.5t-110.5 40.5q-57 16 -102 33t-95.5 46t-84 63.5t-56 85.5t-22.5 112z" />
<glyph unicode="t" horiz-adv-x="800" d="M41 774v250h43q140 0 215 77.5t113 229.5h45v-307h264v-250h-264v-436q0 -94 92 -94q46 0 94 20.5t80 54.5v-264q-96 -71 -248 -71q-60 0 -110 14.5t-93 45t-67.5 86.5t-24.5 132v512h-139z" />
<glyph unicode="u" horiz-adv-x="1138" d="M98 430v594h277v-573q0 -90 55 -148.5t139 -58.5q85 0 140 59t55 148v573h276v-594q0 -194 -134.5 -323.5t-336.5 -129.5t-336.5 129.5t-134.5 323.5z" />
<glyph unicode="v" horiz-adv-x="1110" d="M-20 1024h307l268 -518l268 518h307l-546 -1047h-58z" />
<glyph unicode="w" horiz-adv-x="1597" d="M-16 1024h307l266 -535l59 115q25 49 25 80q0 20 -14.5 66.5t-14.5 85.5q0 87 51.5 140.5t135.5 53.5q83 0 134.5 -53.5t51.5 -138.5q0 -36 -13.5 -85t-13.5 -71q0 -33 23 -78l59 -115l267 535h307l-537 -1047h-57l-221 431l-221 -431h-58z" />
<glyph unicode="x" horiz-adv-x="1155" d="M4 0l410 539l-369 485h317l216 -297l215 297h317l-369 -485l410 -539h-322l-251 330l-252 -330h-322z" />
<glyph unicode="y" horiz-adv-x="1122" d="M-8 1024h307l268 -518l269 518h307l-547 -1047q-14 -27 -35.5 -70.5t-35 -70t-34.5 -63.5t-38.5 -59.5t-42.5 -48t-50.5 -39t-59 -23t-71.5 -9.5q-54 0 -94.5 17t-61 44.5t-30.5 56t-10 57.5q0 62 41.5 105.5t105.5 43.5q62 0 88 -37q-21 -18 -23.5 -45t16.5 -47t52 -20 q99 0 213 231z" />
<glyph unicode="z" horiz-adv-x="1024" d="M0 0l510 774h-459v250h953l-512 -774h491v-250h-983z" />
<glyph unicode="{" horiz-adv-x="813" d="M37 473v98h59q96 0 153.5 57t57.5 150q0 41 -22.5 147.5t-22.5 176.5q0 201 136 303t374 102v-73q-188 0 -297.5 -92t-109.5 -238q0 -52 21.5 -162.5t21.5 -157.5q0 -95 -52.5 -164t-160.5 -94v-8q108 -25 160.5 -94t52.5 -164q0 -47 -21.5 -157t-21.5 -162 q0 -146 109.5 -238t297.5 -92v-74q-238 0 -374 102.5t-136 303.5q0 70 22.5 176t22.5 147q0 93 -57.5 150t-153.5 57h-59z" />
<glyph unicode="|" horiz-adv-x="593" d="M246 -389v1823h102v-1823h-102z" />
<glyph unicode="}" horiz-adv-x="813" d="M41 -389q188 0 298 92t110 238q0 52 -21.5 162t-21.5 157q0 95 52.5 164t159.5 94v8q-107 25 -159.5 94t-52.5 164q0 47 21.5 157.5t21.5 162.5q0 146 -110 238t-298 92v73q238 0 374 -102t136 -303q0 -70 -22.5 -176.5t-22.5 -147.5q0 -93 57.5 -150t153.5 -57h59v-98 h-59q-96 0 -153.5 -57t-57.5 -150q0 -41 22.5 -147t22.5 -176q0 -201 -136 -303.5t-374 -102.5v74z" />
<glyph unicode="~" d="M61 418q21 97 103 153t196 56q63 0 129.5 -19t115.5 -41.5t117.5 -41.5t133.5 -19q159 0 227 100h35q-21 -97 -103 -153t-196 -56q-63 0 -129.5 19t-115.5 41.5t-117 41.5t-133 19q-160 0 -228 -100h-35z" />
<glyph unicode="&#xa1;" horiz-adv-x="516" d="M80 868q0 74 51.5 126.5t126.5 52.5q73 0 125.5 -52.5t52.5 -126.5q0 -75 -52 -126.5t-126 -51.5q-75 0 -126.5 51.5t-51.5 126.5zM119 -389v921h276v-921h-276z" />
<glyph unicode="&#xa2;" d="M135 451q0 137 67.5 243t178 160.5t242.5 54.5q44 0 118 -12l70 229h100l-73 -245q114 -19 186 -7v-235q-38 -6 -73 -6.5t-68.5 4t-55.5 9t-57 13.5l-135 -448h29q192 0 360 137v-246q-156 -122 -373 -122q-43 0 -84 6l-57 -191h-100l63 209q-155 46 -246.5 165.5 t-91.5 281.5zM391 449q0 -79 39.5 -136.5t110.5 -83.5l135 451q-6 0 -19.5 1t-19.5 1q-105 0 -175.5 -61.5t-70.5 -171.5z" />
<glyph unicode="&#xa3;" d="M76 0v88q86 34 141.5 86.5t75.5 102.5t20 104q0 35 -10 90h-215v205h168q-6 40 -6 78q0 127 67.5 234t183 169t251.5 62q142 0 241 -58v-280q-39 39 -106.5 62.5t-132.5 23.5q-109 0 -167.5 -64.5t-58.5 -159.5q0 -23 7 -67h311v-205h-277q6 -34 6 -63q0 -97 -53 -158 h537v-250h-983z" />
<glyph unicode="&#xa4;" d="M119 115l178 176q-74 96 -74 221q0 123 74 219l-178 178l74 74l176 -178q100 74 221 74q119 0 219 -74l178 178l74 -74l-178 -178q73 -99 73 -219q0 -122 -73 -221l178 -176l-74 -74l-178 178q-96 -74 -219 -74q-125 0 -221 74l-176 -178zM391 512q0 -82 58.5 -140.5 t140.5 -58.5t140 58.5t58 140.5t-58 140.5t-140 58.5t-140.5 -58.5t-58.5 -140.5z" />
<glyph unicode="&#xa5;" d="M70 1196h307l213 -412l213 412h307l-328 -627h320v-102h-373v-137h373v-103h-373v-227h-276v227h-375v103h375v133l-2 4h-373v102h319z" />
<glyph unicode="&#xa7;" horiz-adv-x="1116" d="M90 688q0 127 45 203h10q3 -40 18 -80t34.5 -72t55 -68t62 -59.5t74 -57.5t72.5 -50t76 -48t67 -42q159 -103 235 -206t76 -237q0 -175 -114.5 -279t-288.5 -104q-154 0 -257 78.5t-103 198.5q0 72 39.5 118t113.5 46q40 0 73.5 -13.5t45.5 -35.5q-28 -47 -30.5 -101 t16.5 -97t59 -72t92 -29q68 0 120 47t52 139q0 91 -52 157.5t-144 131.5l-170 118q-1 1 -25 17.5t-32.5 22.5t-34.5 25.5t-38 32t-35.5 36.5t-36 43.5t-29 48.5t-25 56.5t-15 61.5t-6.5 70zM201 1075q0 175 114.5 279t288.5 104q154 0 257.5 -78t103.5 -198q0 -72 -40 -118 t-114 -46q-40 0 -73.5 13.5t-45.5 35.5q28 47 30.5 101t-16.5 97t-59 72t-92 29q-68 0 -120 -47t-52 -139q0 -48 15.5 -90t45.5 -78t61 -63t75 -58l170 -119q5 -3 16 -11q37 -25 60.5 -42t66 -57.5t67.5 -79.5t45.5 -99t20.5 -125q0 -126 -45 -202h-10q-3 40 -18 80 t-34.5 72t-55 68t-62 59.5t-74 57.5t-72.5 50t-76 48t-67 42q-160 103 -235.5 205.5t-75.5 236.5z" />
<glyph unicode="&#xa8;" horiz-adv-x="679" d="M0 1286q0 62 42 105t103 43t104.5 -43t43.5 -105q0 -61 -43 -103t-105 -42q-61 0 -103 41.5t-42 103.5zM387 1286q0 62 42 105t103 43q62 0 105 -43t43 -105q0 -61 -43 -103t-105 -42t-103.5 41.5t-41.5 103.5z" />
<glyph unicode="&#xa9;" horiz-adv-x="1476" d="M82 512q0 133 52 255t140 210t209 140t254 52q178 0 329.5 -88t240 -239.5t88.5 -329.5q0 -177 -88.5 -328t-240 -239t-329.5 -88q-133 0 -254 52t-209 140t-140 209t-52 254zM184 512q0 -112 44 -214.5t118 -176.5t176.5 -118t214.5 -44t215 44t177.5 118t118.5 176.5 t44 214.5t-44 215t-118.5 177.5t-177.5 118.5t-215 44t-214.5 -44t-176.5 -118.5t-118 -177.5t-44 -215zM348 512q0 163 114 277t275 114q138 0 245 -87t138 -220h-211q-22 50 -68 79.5t-104 29.5q-80 0 -135 -55.5t-55 -137.5q0 -80 55.5 -135t134.5 -55q65 0 116 39t69 98 h202q-20 -143 -129.5 -239.5t-257.5 -96.5q-161 0 -275 114t-114 275z" />
<glyph unicode="&#xaa;" horiz-adv-x="899" d="M61 1104q0 142 97.5 243t238.5 101q125 0 197 -86v72h192v-660h-192v72q-72 -86 -197 -86q-141 0 -238.5 101t-97.5 243zM262 1104q0 -68 49 -117t117 -49t117 49t49 117q0 69 -49 117.5t-117 48.5t-117 -48.5t-49 -117.5z" />
<glyph unicode="&#xab;" horiz-adv-x="1175" d="M53 514l527 524v-315l-207 -209l207 -207v-319zM555 514l524 524v-315l-207 -209l207 -207v-319z" />
<glyph unicode="&#xac;" horiz-adv-x="1228" d="M88 567v144h971v-557h-144v413h-827z" />
<glyph unicode="&#xad;" horiz-adv-x="749" d="M80 389v246h590v-246h-590z" />
<glyph unicode="&#xae;" horiz-adv-x="894" d="M53 1059q0 163 116 279t277 116q163 0 279.5 -116t116.5 -279q0 -161 -116.5 -277t-279.5 -116q-161 0 -277 116t-116 277zM115 1059q0 -137 97.5 -234.5t233.5 -97.5q138 0 236 97.5t98 234.5q0 138 -98 236t-236 98q-137 0 -234 -98t-97 -236zM268 838v444h236 q72 0 115 -37.5t43 -97.5q0 -50 -29.5 -90t-91.5 -51l112 -168h-131l-137 215v-215h-117zM385 1071q24 -8 74 -8q46 0 66 17t20 42q0 23 -18.5 37.5t-47.5 14.5h-94v-103z" />
<glyph unicode="&#xaf;" horiz-adv-x="774" d="M88 1221v131h608v-131h-608z" />
<glyph unicode="&#xb0;" horiz-adv-x="741" d="M45 1124q0 135 95.5 230.5t230.5 95.5t230 -95.5t95 -230.5t-95 -230t-230 -95t-230.5 95t-95.5 230zM225 1124q0 -60 43 -102.5t103 -42.5t102.5 42.5t42.5 102.5t-42.5 103t-102.5 43t-103 -43t-43 -103z" />
<glyph unicode="&#xb1;" d="M78 0v102h1024v-102h-1024zM78 666v102h461v461h102v-461h461v-102h-461v-461h-102v461h-461z" />
<glyph unicode="&#xb4;" horiz-adv-x="501" d="M84 1120l63 178q3 7 12 34t14.5 41.5t19.5 38t29.5 36.5t40.5 23t56 10q59 0 99.5 -36.5t40.5 -88.5q0 -75 -82 -129l-162 -107h-131z" />
<glyph unicode="&#xb5;" d="M109 -8v1032h276v-815q80 41 223 41h170v774h277v-1024h-604q-113 0 -170.5 -51.5t-57.5 -122.5q0 -44 23 -69t57 -25q38 0 53.5 27.5t5.5 58.5q27 45 97 45q57 0 94 -37.5t37 -91.5q0 -62 -48 -104t-130 -42q-131 0 -217 107.5t-86 296.5z" />
<glyph unicode="&#xb6;" horiz-adv-x="1093" d="M82 1102q0 148 104 252t258 104q64 0 112 -17.5t103 -49.5q54 -31 105 -31q52 0 90 33q22 22 27 41h80v-1823h-84v1706q-50 -37 -109 -37v-1669h-162v1173q-84 -41 -170 -41q-146 0 -250 105t-104 254z" />
<glyph unicode="&#xb7;" horiz-adv-x="516" d="M80 512q0 75 51.5 126.5t126.5 51.5q74 0 126 -51.5t52 -126.5q0 -74 -52 -126t-126 -52q-75 0 -126.5 52t-51.5 126z" />
<glyph unicode="&#xb8;" horiz-adv-x="651" d="M125 -350q77 -39 154 -39q69 0 113.5 40t31.5 103q-25 -35 -84 -35q-57 0 -94 33.5t-37 77.5t36.5 76.5t106.5 32.5q88 0 151.5 -51.5t63.5 -143.5q0 -99 -74.5 -162t-189.5 -63q-91 0 -178 45v86z" />
<glyph unicode="&#xba;" horiz-adv-x="843" d="M59 1104q0 144 102 244t263 100q158 0 259 -100t101 -244t-101 -244t-259 -100q-161 0 -263 100t-102 244zM260 1104q0 -68 48 -117t116 -49q66 0 114 49t48 117q0 69 -48 117.5t-114 48.5q-69 0 -116.5 -48.5t-47.5 -117.5z" />
<glyph unicode="&#xbb;" horiz-adv-x="1177" d="M96 -12v319l209 207l-209 209v315l527 -524zM600 -12v319l207 207l-207 209v315l524 -524z" />
<glyph unicode="&#xbf;" horiz-adv-x="905" d="M53 -12q0 137 76 241t236 205q202 123 219 154h10q49 -92 49 -164q0 -27 -5 -50.5t-18.5 -45.5t-22.5 -36.5t-33.5 -35.5t-33.5 -28.5t-40 -30t-37 -27.5l-21 -14q-92 -65 -144 -132t-52 -155q0 -93 57.5 -140.5t130.5 -47.5q56 0 97 29.5t59.5 73t15 97t-30.5 99.5 q12 22 45.5 35.5t73.5 13.5q74 0 114 -46t40 -118q0 -121 -104 -199t-259 -78q-182 0 -302 110t-120 290zM356 868q0 74 53 126.5t126 52.5q75 0 126.5 -52.5t51.5 -126.5q0 -75 -51.5 -126.5t-126.5 -51.5q-74 0 -126.5 51.5t-52.5 126.5z" />
<glyph unicode="&#xc0;" horiz-adv-x="1122" d="M57 291q0 79 37.5 146t108.5 108q102 57 260 57q151 0 274 -45v217h-602v250h879v-1024h-277v98q-115 -121 -305 -121q-172 0 -273.5 89.5t-101.5 224.5zM225 1458h316l145 -338h-209zM346 309q0 -48 43 -70t103 -22q80 0 146.5 42t98.5 112v2q-115 35 -213 35 q-81 0 -129.5 -24t-48.5 -75z" />
<glyph unicode="&#xc1;" horiz-adv-x="1122" d="M57 291q0 79 37.5 146t108.5 108q102 57 260 57q151 0 274 -45v217h-602v250h879v-1024h-277v98q-115 -121 -305 -121q-172 0 -273.5 89.5t-101.5 224.5zM346 309q0 -48 43 -70t103 -22q80 0 146.5 42t98.5 112v2q-115 35 -213 35q-81 0 -129.5 -24t-48.5 -75zM426 1120 l145 338h316l-252 -338h-209z" />
<glyph unicode="&#xc2;" horiz-adv-x="1122" d="M57 291q0 79 37.5 146t108.5 108q102 57 260 57q151 0 274 -45v217h-602v250h879v-1024h-277v98q-115 -121 -305 -121q-172 0 -273.5 89.5t-101.5 224.5zM215 1120l201 260q35 46 67 67t88 21t88.5 -21.5t67.5 -66.5l201 -260h-236l-121 154l-120 -154h-236zM346 309 q0 -48 43 -70t103 -22q80 0 146.5 42t98.5 112v2q-115 35 -213 35q-81 0 -129.5 -24t-48.5 -75z" />
<glyph unicode="&#xc3;" horiz-adv-x="1122" d="M57 291q0 79 37.5 146t108.5 108q102 57 260 57q151 0 274 -45v217h-602v250h879v-1024h-277v98q-115 -121 -305 -121q-172 0 -273.5 89.5t-101.5 224.5zM193 1139q0 135 70.5 231t195.5 96q88 0 166 -65q24 -21 41 -30t41 -9q41 0 60 27.5t21 68.5h185 q0 -135 -70.5 -231.5t-195.5 -96.5q-39 0 -73.5 11.5t-51.5 23.5t-41 31q-24 21 -41 30t-41 9q-41 0 -60.5 -28t-21.5 -68h-184zM346 309q0 -48 43 -70t103 -22q80 0 146.5 42t98.5 112v2q-115 35 -213 35q-81 0 -129.5 -24t-48.5 -75z" />
<glyph unicode="&#xc4;" horiz-adv-x="1122" d="M57 291q0 79 37.5 146t108.5 108q102 57 260 57q151 0 274 -45v217h-602v250h879v-1024h-277v98q-115 -121 -305 -121q-172 0 -273.5 89.5t-101.5 224.5zM227 1286q0 62 42.5 105t103.5 43t104 -43t43 -105q0 -61 -42.5 -103t-104.5 -42t-104 42t-42 103zM346 309 q0 -48 43 -70t103 -22q80 0 146.5 42t98.5 112v2q-115 35 -213 35q-81 0 -129.5 -24t-48.5 -75zM614 1286q0 62 42.5 105t103.5 43t104 -43t43 -105q0 -61 -42.5 -103t-104.5 -42t-104 42t-42 103z" />
<glyph unicode="&#xc5;" horiz-adv-x="1122" d="M57 291q0 79 37.5 146t108.5 108q102 57 260 57q151 0 274 -45v217h-602v250h879v-1024h-277v98q-115 -121 -305 -121q-172 0 -273.5 89.5t-101.5 224.5zM346 309q0 -48 43 -70t103 -22q80 0 146.5 42t98.5 112v2q-115 35 -213 35q-81 0 -129.5 -24t-48.5 -75zM356 1284 q0 85 60 145t145 60t145 -60t60 -145t-60 -145t-145 -60t-145 60t-60 145zM479 1284q0 -34 24 -58t58 -24t58 24t24 58t-24 58t-58 24t-58 -24t-24 -58z" />
<glyph unicode="&#xc6;" horiz-adv-x="1773" d="M61 291q0 79 37.5 146t108.5 108q102 57 260 57q151 0 274 -45v217h-602v250h879v-90q119 113 303 113q172 0 273.5 -89.5t101.5 -224.5q0 -79 -37.5 -146t-108.5 -108q-102 -57 -260 -57q-152 0 -270 43q10 -108 90.5 -167.5t214.5 -59.5q208 0 363 159v-301 q-70 -54 -171.5 -86.5t-220.5 -32.5q-161 0 -280 57t-187 159q-136 -216 -393 -216q-172 0 -273.5 89.5t-101.5 224.5zM350 309q0 -48 43 -70t103 -22q80 0 146.5 42t98.5 112v2q-116 35 -213 35q-81 0 -129.5 -24t-48.5 -75zM1016 651q8 -2 37.5 -9.5t50.5 -12t56 -9 t69 -4.5q81 0 129.5 24t48.5 75q0 48 -42.5 70t-102.5 22q-82 0 -148 -42t-98 -114z" />
<glyph unicode="&#xc7;" horiz-adv-x="1075" d="M53 512q0 162 73.5 285.5t192.5 186.5t261 63q66 0 199 -27t214 -12v-273q-100 -13 -151.5 -2t-123 31t-118.5 20q-108 0 -181 -71.5t-73 -190.5q0 -124 79 -200t202 -76q96 0 193 45t173 115v-297q-167 -132 -389 -132q-154 0 -278 63t-198.5 186t-74.5 286zM315 -322 q55 -38 142 -38q61 0 100 25.5t39 62.5q-34 -19 -76 -19q-54 0 -87.5 33t-33.5 80q0 48 37.5 82.5t108.5 34.5q87 0 150 -53t63 -152q0 -108 -74.5 -172t-189.5 -64q-92 0 -179 45v135z" />
<glyph unicode="&#xc8;" horiz-adv-x="1095" d="M55 504q0 237 152.5 390t400.5 153q190 0 300 -91t110 -223q0 -76 -36.5 -137.5t-96.5 -93.5q-91 -49 -271 -49q-165 0 -270 32q4 -118 85.5 -182.5t221.5 -64.5q208 0 363 159v-301q-70 -54 -171 -86.5t-220 -32.5q-178 0 -308.5 71t-195 189t-64.5 267zM252 1458h315 l146 -338h-209zM371 664q74 -17 178 -17q92 0 136 16.5t44 61.5q0 43 -37.5 62.5t-95.5 19.5q-168 0 -225 -143z" />
<glyph unicode="&#xc9;" horiz-adv-x="1095" d="M55 504q0 237 152.5 390t400.5 153q190 0 300 -91t110 -223q0 -76 -36.5 -137.5t-96.5 -93.5q-91 -49 -271 -49q-165 0 -270 32q4 -118 85.5 -182.5t221.5 -64.5q208 0 363 159v-301q-70 -54 -171 -86.5t-220 -32.5q-178 0 -308.5 71t-195 189t-64.5 267zM371 664 q74 -17 178 -17q92 0 136 16.5t44 61.5q0 43 -37.5 62.5t-95.5 19.5q-168 0 -225 -143zM471 1120l145 338h316l-252 -338h-209z" />
<glyph unicode="&#xca;" horiz-adv-x="1095" d="M55 504q0 237 152.5 390t400.5 153q190 0 300 -91t110 -223q0 -76 -36.5 -137.5t-96.5 -93.5q-91 -49 -271 -49q-165 0 -270 32q4 -118 85.5 -182.5t221.5 -64.5q208 0 363 159v-301q-70 -54 -171 -86.5t-220 -32.5q-178 0 -308.5 71t-195 189t-64.5 267zM238 1120 l200 260q35 45 67.5 66.5t88.5 21.5t88.5 -21.5t67.5 -66.5l200 -260h-235l-121 154l-121 -154h-235zM371 664q74 -17 178 -17q92 0 136 16.5t44 61.5q0 43 -37.5 62.5t-95.5 19.5q-168 0 -225 -143z" />
<glyph unicode="&#xcb;" horiz-adv-x="1095" d="M55 504q0 237 152.5 390t400.5 153q190 0 300 -91t110 -223q0 -76 -36.5 -137.5t-96.5 -93.5q-91 -49 -271 -49q-165 0 -270 32q4 -118 85.5 -182.5t221.5 -64.5q208 0 363 159v-301q-70 -54 -171 -86.5t-220 -32.5q-178 0 -308.5 71t-195 189t-64.5 267zM244 1286 q0 62 42 105t103 43t104.5 -43t43.5 -105q0 -61 -43 -103t-105 -42q-61 0 -103 41.5t-42 103.5zM371 664q74 -17 178 -17q92 0 136 16.5t44 61.5q0 43 -37.5 62.5t-95.5 19.5q-168 0 -225 -143zM631 1286q0 62 42 105t103 43q62 0 105 -43t43 -105q0 -61 -43 -103t-105 -42 t-103.5 41.5t-41.5 103.5z" />
<glyph unicode="&#xcc;" horiz-adv-x="493" d="M-74 1458h316l145 -338h-209zM109 0v1024h276v-1024h-276z" />
<glyph unicode="&#xcd;" horiz-adv-x="493" d="M106 1120l146 338h315l-252 -338h-209zM109 0v1024h276v-1024h-276z" />
<glyph unicode="&#xce;" horiz-adv-x="493" d="M-109 1120l201 260q35 45 67.5 66.5t88.5 21.5t88 -21t67 -67l201 -260h-235l-121 154l-121 -154h-236zM109 0v1024h276v-1024h-276z" />
<glyph unicode="&#xcf;" horiz-adv-x="493" d="M-92 1286q0 62 42 105t103 43t104.5 -43t43.5 -105q0 -61 -43 -103t-105 -42q-61 0 -103 41.5t-42 103.5zM109 0v1024h276v-1024h-276zM295 1286q0 62 42 105t103 43q62 0 105 -43t43 -105q0 -61 -43 -103t-105 -42t-103.5 41.5t-41.5 103.5z" />
<glyph unicode="&#xd0;" horiz-adv-x="1177" d="M55 502q0 135 60 249.5t174 188t262 84.5l-84 115l-162 -58l-108 146l161 57l-110 150h323l41 -58l156 58l109 -146l-158 -57l313 -426q92 -127 92 -303q0 -144 -67.5 -263.5t-190.5 -190.5t-276 -71q-152 0 -275.5 71t-191.5 191t-68 263zM344 502q0 -107 70.5 -181.5 t175.5 -74.5q106 0 176 74.5t70 181.5q0 108 -70 183t-176 75q-105 0 -175.5 -75t-70.5 -183z" />
<glyph unicode="&#xd1;" horiz-adv-x="1163" d="M109 0v1024h946v-1024h-277v774h-393v-774h-276zM190 1139q0 135 71 231t196 96q88 0 166 -65q24 -21 41 -30t41 -9q41 0 60 27.5t21 68.5h185q0 -135 -70.5 -231.5t-195.5 -96.5q-39 0 -73.5 11.5t-51.5 23.5t-41 31q-24 21 -41 30t-41 9q-41 0 -60.5 -28t-21.5 -68 h-185z" />
<glyph unicode="&#xd2;" horiz-adv-x="1212" d="M53 512q0 145 71 267.5t199 195t285 72.5q156 0 283 -72.5t197.5 -195t70.5 -267.5t-70.5 -267.5t-197.5 -195t-283 -72.5q-157 0 -285 72.5t-199 195t-71 267.5zM244 1458h315l146 -338h-209zM344 512q0 -111 76 -189.5t188 -78.5q109 0 185.5 79t76.5 189 q0 112 -76.5 191t-185.5 79q-112 0 -188 -78.5t-76 -191.5z" />
<glyph unicode="&#xd3;" horiz-adv-x="1212" d="M53 512q0 145 71 267.5t199 195t285 72.5q156 0 283 -72.5t197.5 -195t70.5 -267.5t-70.5 -267.5t-197.5 -195t-283 -72.5q-157 0 -285 72.5t-199 195t-71 267.5zM344 512q0 -111 76 -189.5t188 -78.5q109 0 185.5 79t76.5 189q0 112 -76.5 191t-185.5 79 q-112 0 -188 -78.5t-76 -191.5zM479 1120l146 338h315l-252 -338h-209z" />
<glyph unicode="&#xd4;" horiz-adv-x="1212" d="M53 512q0 145 71 267.5t199 195t285 72.5q156 0 283 -72.5t197.5 -195t70.5 -267.5t-70.5 -267.5t-197.5 -195t-283 -72.5q-157 0 -285 72.5t-199 195t-71 267.5zM250 1120l201 260q35 46 67 67t88 21t88.5 -21.5t67.5 -66.5l201 -260h-236l-121 154l-121 -154h-235z M344 512q0 -111 76 -189.5t188 -78.5q109 0 185.5 79t76.5 189q0 112 -76.5 191t-185.5 79q-112 0 -188 -78.5t-76 -191.5z" />
<glyph unicode="&#xd5;" horiz-adv-x="1212" d="M53 512q0 145 71 267.5t199 195t285 72.5q156 0 283 -72.5t197.5 -195t70.5 -267.5t-70.5 -267.5t-197.5 -195t-283 -72.5q-157 0 -285 72.5t-199 195t-71 267.5zM215 1139q0 135 70.5 231t195.5 96q88 0 166 -65q24 -21 41 -30t41 -9q41 0 60.5 28t21.5 68h184 q0 -135 -70.5 -231.5t-195.5 -96.5q-39 0 -73.5 11.5t-51.5 23.5t-41 31q-24 21 -41 30t-41 9q-41 0 -60.5 -28t-21.5 -68h-184zM344 512q0 -111 76 -189.5t188 -78.5q109 0 185.5 79t76.5 189q0 112 -76.5 191t-185.5 79q-112 0 -188 -78.5t-76 -191.5z" />
<glyph unicode="&#xd6;" horiz-adv-x="1212" d="M53 512q0 145 71 267.5t199 195t285 72.5q156 0 283 -72.5t197.5 -195t70.5 -267.5t-70.5 -267.5t-197.5 -195t-283 -72.5q-157 0 -285 72.5t-199 195t-71 267.5zM266 1286q0 62 42.5 105t103.5 43t104 -43t43 -105q0 -61 -42.5 -103t-104.5 -42t-104 42t-42 103z M344 512q0 -111 76 -189.5t188 -78.5q109 0 185.5 79t76.5 189q0 112 -76.5 191t-185.5 79q-112 0 -188 -78.5t-76 -191.5zM653 1286q0 62 42.5 105t103.5 43t104 -43t43 -105q0 -61 -42.5 -103t-104.5 -42t-104 42t-42 103z" />
<glyph unicode="&#xd7;" d="M119 115l399 397l-399 397l74 74l397 -399l397 399l74 -74l-399 -397l399 -397l-74 -74l-397 399l-397 -399z" />
<glyph unicode="&#xd8;" horiz-adv-x="1212" d="M53 512q0 145 71 267.5t199 195t285 72.5q146 0 273 -68l59 72q25 32 68 32q35 0 63.5 -28t28.5 -62q0 -33 -23 -59l-55 -66q137 -150 137 -356q0 -145 -70.5 -267.5t-197.5 -195t-283 -72.5q-149 0 -276 68l-60 -72q-25 -32 -67 -32q-35 0 -63.5 28t-28.5 62t22 59 l55 66q-137 150 -137 356zM344 512q0 -69 33 -133l323 385q-44 18 -92 18q-112 0 -188 -78.5t-76 -191.5zM512 260q50 -16 96 -16q109 0 185.5 79t76.5 189q0 75 -34 133z" />
<glyph unicode="&#xd9;" horiz-adv-x="1138" d="M98 430v594h277v-573q0 -90 55 -148.5t139 -58.5q85 0 140 59t55 148v573h276v-594q0 -194 -134.5 -323.5t-336.5 -129.5t-336.5 129.5t-134.5 323.5zM211 1458h315l146 -338h-209z" />
<glyph unicode="&#xda;" horiz-adv-x="1138" d="M98 430v594h277v-573q0 -90 55 -148.5t139 -58.5q85 0 140 59t55 148v573h276v-594q0 -194 -134.5 -323.5t-336.5 -129.5t-336.5 129.5t-134.5 323.5zM459 1120l145 338h316l-252 -338h-209z" />
<glyph unicode="&#xdb;" horiz-adv-x="1138" d="M98 430v594h277v-573q0 -90 55 -148.5t139 -58.5q85 0 140 59t55 148v573h276v-594q0 -194 -134.5 -323.5t-336.5 -129.5t-336.5 129.5t-134.5 323.5zM213 1120l201 260q35 46 67 67t88 21t88.5 -21.5t67.5 -66.5l201 -260h-236l-121 154l-120 -154h-236z" />
<glyph unicode="&#xdc;" horiz-adv-x="1138" d="M98 430v594h277v-573q0 -90 55 -148.5t139 -58.5q85 0 140 59t55 148v573h276v-594q0 -194 -134.5 -323.5t-336.5 -129.5t-336.5 129.5t-134.5 323.5zM229 1286q0 62 42.5 105t103.5 43t104 -43t43 -105q0 -61 -42.5 -103t-104.5 -42t-104 42t-42 103zM616 1286 q0 62 42.5 105t103.5 43t104 -43t43 -105q0 -61 -42.5 -103t-104.5 -42t-104 42t-42 103z" />
<glyph unicode="&#xdd;" horiz-adv-x="1122" d="M-8 1024h307l268 -518l269 518h307l-537 -1026q-119 -227 -212.5 -315.5t-209.5 -88.5q-76 0 -153 39v252q55 -30 108 -30q58 0 112.5 72.5t162.5 285.5zM432 1120l146 338h315l-252 -338h-209z" />
<glyph unicode="&#xde;" horiz-adv-x="1267" d="M109 -389v1823h276v-521q116 134 309 134q145 0 264.5 -72.5t187.5 -195t68 -267.5t-68 -267.5t-187.5 -195t-264.5 -72.5q-193 0 -309 134v-500h-276zM385 512q0 -111 79 -190.5t191 -79.5q110 0 189.5 80t79.5 190q0 112 -79 191t-190 79q-113 0 -191.5 -79t-78.5 -191 z" />
<glyph unicode="&#xdf;" horiz-adv-x="1255" d="M109 0v934q0 147 66 266t189 188.5t281 69.5q206 0 329.5 -117.5t123.5 -316.5v-250h-219q-33 0 -52.5 -13t-19.5 -36q0 -7 2 -13.5t6.5 -12.5t9 -10.5t13 -10t15 -9t19 -8.5l20 -8t23 -9t23.5 -9q131 -51 197.5 -121.5t66.5 -196.5q0 -112 -54 -190.5t-138 -114 t-187 -35.5q-90 0 -176.5 28t-146.5 71v293q52 -56 134.5 -99t166.5 -43q57 0 85.5 21t28.5 57q0 35 -24.5 55.5t-75.5 40.5q-34 13 -53.5 21.5t-53 25.5t-53.5 32.5t-45 40t-39 51t-24 63t-10 78.5q0 61 21 113t46.5 82.5t65.5 58t60 37t48 20.5q22 8 38 17t39 27t35.5 46 t12.5 64q0 74 -55.5 121t-151.5 47q-92 0 -165 -45t-111 -117q-35 -64 -35 -160v-1024h-276z" />
<glyph unicode="&#xe0;" horiz-adv-x="1122" d="M57 291q0 79 37.5 146t108.5 108q102 57 260 57q151 0 274 -45v217h-602v250h879v-1024h-277v98q-115 -121 -305 -121q-172 0 -273.5 89.5t-101.5 224.5zM285 1356q0 52 40 88.5t99 36.5q31 0 56 -10t40.5 -23t29.5 -36.5t19.5 -38t14.5 -41.5t12 -34l63 -178h-131 l-161 107q-82 54 -82 129zM346 309q0 -48 43 -70t103 -22q80 0 146.5 42t98.5 112v2q-115 35 -213 35q-81 0 -129.5 -24t-48.5 -75z" />
<glyph unicode="&#xe1;" horiz-adv-x="1122" d="M57 291q0 79 37.5 146t108.5 108q102 57 260 57q151 0 274 -45v217h-602v250h879v-1024h-277v98q-115 -121 -305 -121q-172 0 -273.5 89.5t-101.5 224.5zM346 309q0 -48 43 -70t103 -22q80 0 146.5 42t98.5 112v2q-115 35 -213 35q-81 0 -129.5 -24t-48.5 -75zM453 1120 l63 178q3 7 12 34t14.5 41.5t19.5 38t29.5 36.5t40.5 23t56 10q59 0 99 -36.5t40 -88.5q0 -75 -82 -129l-161 -107h-131z" />
<glyph unicode="&#xe2;" horiz-adv-x="1122" d="M57 291q0 79 37.5 146t108.5 108q102 57 260 57q151 0 274 -45v217h-602v250h879v-1024h-277v98q-115 -121 -305 -121q-172 0 -273.5 89.5t-101.5 224.5zM215 1120l201 260q35 46 67 67t88 21t88.5 -21.5t67.5 -66.5l201 -260h-113l-244 140l-243 -140h-113zM346 309 q0 -48 43 -70t103 -22q80 0 146.5 42t98.5 112v2q-115 35 -213 35q-81 0 -129.5 -24t-48.5 -75z" />
<glyph unicode="&#xe3;" horiz-adv-x="1122" d="M57 291q0 79 37.5 146t108.5 108q102 57 260 57q151 0 274 -45v217h-602v250h879v-1024h-277v98q-115 -121 -305 -121q-172 0 -273.5 89.5t-101.5 224.5zM193 1139q0 50 6 93.5t23 87.5t43.5 75.5t70 51t100.5 19.5q52 0 90 -15t99 -52q75 -47 135 -47q64 0 96.5 32 t42.5 74h74q0 -50 -6 -93.5t-23 -88t-43.5 -76t-70.5 -51t-101 -19.5q-36 0 -69.5 10t-54.5 21t-64 37q-75 47 -135 47q-64 0 -97 -32t-43 -74h-73zM346 309q0 -48 43 -70t103 -22q80 0 146.5 42t98.5 112v2q-115 35 -213 35q-81 0 -129.5 -24t-48.5 -75z" />
<glyph unicode="&#xe4;" horiz-adv-x="1122" d="M57 291q0 79 37.5 146t108.5 108q102 57 260 57q151 0 274 -45v217h-602v250h879v-1024h-277v98q-115 -121 -305 -121q-172 0 -273.5 89.5t-101.5 224.5zM227 1286q0 62 42.5 105t103.5 43t104 -43t43 -105q0 -61 -42.5 -103t-104.5 -42t-104 42t-42 103zM346 309 q0 -48 43 -70t103 -22q80 0 146.5 42t98.5 112v2q-115 35 -213 35q-81 0 -129.5 -24t-48.5 -75zM614 1286q0 62 42.5 105t103.5 43t104 -43t43 -105q0 -61 -42.5 -103t-104.5 -42t-104 42t-42 103z" />
<glyph unicode="&#xe5;" horiz-adv-x="1122" d="M57 291q0 79 37.5 146t108.5 108q102 57 260 57q151 0 274 -45v217h-602v250h879v-1024h-277v98q-115 -121 -305 -121q-172 0 -273.5 89.5t-101.5 224.5zM346 309q0 -48 43 -70t103 -22q80 0 146.5 42t98.5 112v2q-115 35 -213 35q-81 0 -129.5 -24t-48.5 -75zM356 1284 q0 85 60 145t145 60t145 -60t60 -145t-60 -145t-145 -60t-145 60t-60 145zM479 1284q0 -34 24 -58t58 -24t58 24t24 58t-24 58t-58 24t-58 -24t-24 -58z" />
<glyph unicode="&#xe6;" horiz-adv-x="1773" d="M61 291q0 79 37.5 146t108.5 108q102 57 260 57q151 0 274 -45v217h-602v250h879v-90q119 113 303 113q172 0 273.5 -89.5t101.5 -224.5q0 -79 -37.5 -146t-108.5 -108q-102 -57 -260 -57q-152 0 -270 43q10 -108 90.5 -167.5t214.5 -59.5q208 0 363 159v-301 q-70 -54 -171.5 -86.5t-220.5 -32.5q-161 0 -280 57t-187 159q-136 -216 -393 -216q-172 0 -273.5 89.5t-101.5 224.5zM350 309q0 -48 43 -70t103 -22q80 0 146.5 42t98.5 112v2q-116 35 -213 35q-81 0 -129.5 -24t-48.5 -75zM1016 651q8 -2 37.5 -9.5t50.5 -12t56 -9 t69 -4.5q81 0 129.5 24t48.5 75q0 48 -42.5 70t-102.5 22q-82 0 -148 -42t-98 -114z" />
<glyph unicode="&#xe7;" horiz-adv-x="1075" d="M53 512q0 162 73.5 285.5t192.5 186.5t261 63q66 0 199 -27t214 -12v-273q-100 -13 -151.5 -2t-123 31t-118.5 20q-108 0 -181 -71.5t-73 -190.5q0 -124 79 -200t202 -76q96 0 193 45t173 115v-297q-167 -132 -389 -132q-154 0 -278 63t-198.5 186t-74.5 286zM315 -350 q77 -39 154 -39q69 0 113.5 40t31.5 103q-25 -35 -84 -35q-57 0 -94 33.5t-37 77.5t37 76.5t107 32.5q88 0 151.5 -51.5t63.5 -143.5q0 -99 -74.5 -162t-189.5 -63q-92 0 -179 45v86z" />
<glyph unicode="&#xe8;" horiz-adv-x="1095" d="M55 504q0 237 152.5 390t400.5 153q190 0 300 -91t110 -223q0 -76 -36.5 -137.5t-96.5 -93.5q-91 -49 -271 -49q-165 0 -270 32q4 -118 85.5 -182.5t221.5 -64.5q208 0 363 159v-301q-70 -54 -171 -86.5t-220 -32.5q-178 0 -308.5 71t-195 189t-64.5 267zM311 1356 q0 52 40.5 88.5t99.5 36.5q31 0 56 -10t40.5 -23t29.5 -36.5t19.5 -38t14.5 -41.5t12 -34l63 -178h-131l-162 107q-82 54 -82 129zM371 664q74 -17 178 -17q92 0 136 16.5t44 61.5q0 43 -37.5 62.5t-95.5 19.5q-168 0 -225 -143z" />
<glyph unicode="&#xe9;" horiz-adv-x="1095" d="M55 504q0 237 152.5 390t400.5 153q190 0 300 -91t110 -223q0 -76 -36.5 -137.5t-96.5 -93.5q-91 -49 -271 -49q-165 0 -270 32q4 -118 85.5 -182.5t221.5 -64.5q208 0 363 159v-301q-70 -54 -171 -86.5t-220 -32.5q-178 0 -308.5 71t-195 189t-64.5 267zM371 664 q74 -17 178 -17q92 0 136 16.5t44 61.5q0 43 -37.5 62.5t-95.5 19.5q-168 0 -225 -143zM498 1120l63 178q3 7 12 34t14.5 41.5t19.5 38t29.5 36.5t40.5 23t56 10q59 0 99 -36.5t40 -88.5q0 -75 -81 -129l-162 -107h-131z" />
<glyph unicode="&#xea;" horiz-adv-x="1095" d="M55 504q0 237 152.5 390t400.5 153q190 0 300 -91t110 -223q0 -76 -36.5 -137.5t-96.5 -93.5q-91 -49 -271 -49q-165 0 -270 32q4 -118 85.5 -182.5t221.5 -64.5q208 0 363 159v-301q-70 -54 -171 -86.5t-220 -32.5q-178 0 -308.5 71t-195 189t-64.5 267zM238 1120 l200 260q35 45 67.5 66.5t88.5 21.5t88.5 -21.5t67.5 -66.5l200 -260h-112l-244 140l-244 -140h-112zM371 664q74 -17 178 -17q92 0 136 16.5t44 61.5q0 43 -37.5 62.5t-95.5 19.5q-168 0 -225 -143z" />
<glyph unicode="&#xeb;" horiz-adv-x="1095" d="M55 504q0 237 152.5 390t400.5 153q190 0 300 -91t110 -223q0 -76 -36.5 -137.5t-96.5 -93.5q-91 -49 -271 -49q-165 0 -270 32q4 -118 85.5 -182.5t221.5 -64.5q208 0 363 159v-301q-70 -54 -171 -86.5t-220 -32.5q-178 0 -308.5 71t-195 189t-64.5 267zM244 1286 q0 62 42 105t103 43t104.5 -43t43.5 -105q0 -61 -43 -103t-105 -42q-61 0 -103 41.5t-42 103.5zM371 664q74 -17 178 -17q92 0 136 16.5t44 61.5q0 43 -37.5 62.5t-95.5 19.5q-168 0 -225 -143zM631 1286q0 62 42 105t103 43q62 0 105 -43t43 -105q0 -61 -43 -103t-105 -42 t-103.5 41.5t-41.5 103.5z" />
<glyph unicode="&#xec;" horiz-adv-x="493" d="M-14 1356q0 52 40 88.5t99 36.5q31 0 56 -10t40.5 -23t29.5 -36.5t19.5 -38t14.5 -41.5t12 -34l63 -178h-131l-161 107q-82 54 -82 129zM109 0v1024h276v-1024h-276z" />
<glyph unicode="&#xed;" horiz-adv-x="493" d="M109 0v1024h276v-1024h-276zM133 1120l64 178q3 7 12 34t14.5 41.5t19.5 38t29.5 36.5t40.5 23t56 10q59 0 99 -36.5t40 -88.5q0 -75 -82 -129l-162 -107h-131z" />
<glyph unicode="&#xee;" horiz-adv-x="493" d="M-109 1120l201 260q35 45 67.5 66.5t88.5 21.5t88 -21t67 -67l201 -260h-112l-244 140l-244 -140h-113zM109 0v1024h276v-1024h-276z" />
<glyph unicode="&#xef;" horiz-adv-x="493" d="M-92 1286q0 62 42 105t103 43t104.5 -43t43.5 -105q0 -61 -43 -103t-105 -42q-61 0 -103 41.5t-42 103.5zM109 0v1024h276v-1024h-276zM295 1286q0 62 42 105t103 43q62 0 105 -43t43 -105q0 -61 -43 -103t-105 -42t-103.5 41.5t-41.5 103.5z" />
<glyph unicode="&#xf0;" horiz-adv-x="1177" d="M55 502q0 135 60 249.5t174 188t262 84.5q-59 88 -105 150l-165 -60l-76 100l160 58q-60 63 -106 85.5t-93 22.5q-13 0 -37 -4v58q122 20 180 20q78 0 144 -21t137 -79l186 67l76 -100l-166 -59q50 -56 102 -125l244 -332q92 -127 92 -303q0 -144 -67.5 -263.5 t-190.5 -190.5t-276 -71q-152 0 -275.5 71t-191.5 191t-68 263zM344 502q0 -107 70.5 -181.5t175.5 -74.5q106 0 176 74.5t70 181.5q0 108 -70 183t-176 75q-105 0 -175.5 -75t-70.5 -183z" />
<glyph unicode="&#xf1;" horiz-adv-x="1163" d="M109 0v1024h946v-1024h-277v774h-393v-774h-276zM190 1139q0 50 6 93.5t23 87.5t43.5 75.5t70.5 51t101 19.5q52 0 90 -15t99 -52q75 -47 135 -47q64 0 96.5 32t42.5 74h74q0 -50 -6 -93.5t-23 -88t-43.5 -76t-70.5 -51t-101 -19.5q-36 0 -69.5 10t-54.5 21t-64 37 q-75 47 -136 47q-64 0 -96.5 -32t-42.5 -74h-74z" />
<glyph unicode="&#xf2;" horiz-adv-x="1212" d="M53 512q0 145 71 267.5t199 195t285 72.5q156 0 283 -72.5t197.5 -195t70.5 -267.5t-70.5 -267.5t-197.5 -195t-283 -72.5q-157 0 -285 72.5t-199 195t-71 267.5zM303 1356q0 52 40 88.5t99 36.5q31 0 56 -10t40.5 -23t29.5 -36.5t19.5 -38t14.5 -41.5t12 -34l64 -178 h-131l-162 107q-82 54 -82 129zM344 512q0 -111 76 -189.5t188 -78.5q109 0 185.5 79t76.5 189q0 112 -76.5 191t-185.5 79q-112 0 -188 -78.5t-76 -191.5z" />
<glyph unicode="&#xf3;" horiz-adv-x="1212" d="M53 512q0 145 71 267.5t199 195t285 72.5q156 0 283 -72.5t197.5 -195t70.5 -267.5t-70.5 -267.5t-197.5 -195t-283 -72.5q-157 0 -285 72.5t-199 195t-71 267.5zM344 512q0 -111 76 -189.5t188 -78.5q109 0 185.5 79t76.5 189q0 112 -76.5 191t-185.5 79 q-112 0 -188 -78.5t-76 -191.5zM506 1120l63 178q3 7 12 34t14.5 41.5t19.5 38t29.5 36.5t40.5 23t56 10q59 0 99.5 -36.5t40.5 -88.5q0 -75 -82 -129l-162 -107h-131z" />
<glyph unicode="&#xf4;" horiz-adv-x="1212" d="M53 512q0 145 71 267.5t199 195t285 72.5q156 0 283 -72.5t197.5 -195t70.5 -267.5t-70.5 -267.5t-197.5 -195t-283 -72.5q-157 0 -285 72.5t-199 195t-71 267.5zM250 1120l201 260q35 46 67 67t88 21t88.5 -21.5t67.5 -66.5l201 -260h-113l-244 140l-244 -140h-112z M344 512q0 -111 76 -189.5t188 -78.5q109 0 185.5 79t76.5 189q0 112 -76.5 191t-185.5 79q-112 0 -188 -78.5t-76 -191.5z" />
<glyph unicode="&#xf5;" horiz-adv-x="1212" d="M53 512q0 145 71 267.5t199 195t285 72.5q156 0 283 -72.5t197.5 -195t70.5 -267.5t-70.5 -267.5t-197.5 -195t-283 -72.5q-157 0 -285 72.5t-199 195t-71 267.5zM215 1139q0 50 6 93.5t23 87.5t43.5 75.5t70.5 51t101 19.5q36 0 69 -9.5t55 -21t64 -36.5q75 -47 135 -47 q64 0 97 32t43 74h73q0 -50 -6 -93.5t-23 -88t-43.5 -76t-70 -51t-100.5 -19.5q-36 0 -69.5 10t-55 21t-64.5 37q-75 47 -135 47q-64 0 -96.5 -32t-42.5 -74h-74zM344 512q0 -111 76 -189.5t188 -78.5q109 0 185.5 79t76.5 189q0 112 -76.5 191t-185.5 79q-112 0 -188 -78.5 t-76 -191.5z" />
<glyph unicode="&#xf6;" horiz-adv-x="1212" d="M53 512q0 145 71 267.5t199 195t285 72.5q156 0 283 -72.5t197.5 -195t70.5 -267.5t-70.5 -267.5t-197.5 -195t-283 -72.5q-157 0 -285 72.5t-199 195t-71 267.5zM266 1286q0 62 42.5 105t103.5 43t104 -43t43 -105q0 -61 -42.5 -103t-104.5 -42t-104 42t-42 103z M344 512q0 -111 76 -189.5t188 -78.5q109 0 185.5 79t76.5 189q0 112 -76.5 191t-185.5 79q-112 0 -188 -78.5t-76 -191.5zM653 1286q0 62 42.5 105t103.5 43t104 -43t43 -105q0 -61 -42.5 -103t-104.5 -42t-104 42t-42 103z" />
<glyph unicode="&#xf7;" d="M78 461v102h1024v-102h-1024zM444 145q0 62 42.5 105t103.5 43t104 -43t43 -105q0 -61 -42.5 -103t-104.5 -42t-104 42t-42 103zM444 877q0 62 42.5 104.5t103.5 42.5q62 0 104.5 -43t42.5 -104t-42.5 -103.5t-104.5 -42.5t-104 42.5t-42 103.5z" />
<glyph unicode="&#xf8;" horiz-adv-x="1212" d="M53 512q0 145 71 267.5t199 195t285 72.5q168 0 307 -89l82 97q15 18 37 18q20 0 35.5 -15t15.5 -34q0 -18 -12 -33l-80 -94q79 -74 122.5 -174t43.5 -211q0 -145 -70.5 -267.5t-197.5 -195t-283 -72.5q-172 0 -311 89l-82 -97q-15 -18 -37 -18q-20 0 -35.5 15t-15.5 34 q0 18 12 33l78 94q-78 73 -121 173t-43 212zM344 512q0 -96 57 -168l338 404q-58 34 -131 34q-112 0 -188 -78.5t-76 -191.5zM475 279q59 -35 133 -35q109 0 185.5 79t76.5 189q0 93 -57 170z" />
<glyph unicode="&#xf9;" horiz-adv-x="1138" d="M98 430v594h277v-573q0 -90 55 -148.5t139 -58.5q85 0 140 59t55 148v573h276v-594q0 -194 -134.5 -323.5t-336.5 -129.5t-336.5 129.5t-134.5 323.5zM270 1356q0 52 40.5 88.5t99.5 36.5q31 0 56 -10t40.5 -23t29.5 -36.5t19.5 -38t14.5 -41.5t12 -34l63 -178h-131 l-162 107q-82 54 -82 129z" />
<glyph unicode="&#xfa;" horiz-adv-x="1138" d="M98 430v594h277v-573q0 -90 55 -148.5t139 -58.5q85 0 140 59t55 148v573h276v-594q0 -194 -134.5 -323.5t-336.5 -129.5t-336.5 129.5t-134.5 323.5zM485 1120l64 178q3 7 12 34t14.5 41.5t19.5 38t29.5 36.5t40.5 23t56 10q59 0 99 -36.5t40 -88.5q0 -75 -82 -129 l-162 -107h-131z" />
<glyph unicode="&#xfb;" horiz-adv-x="1138" d="M98 430v594h277v-573q0 -90 55 -148.5t139 -58.5q85 0 140 59t55 148v573h276v-594q0 -194 -134.5 -323.5t-336.5 -129.5t-336.5 129.5t-134.5 323.5zM213 1120l201 260q35 46 67 67t88 21t88.5 -21.5t67.5 -66.5l201 -260h-113l-244 140l-243 -140h-113z" />
<glyph unicode="&#xfc;" horiz-adv-x="1138" d="M98 430v594h277v-573q0 -90 55 -148.5t139 -58.5q85 0 140 59t55 148v573h276v-594q0 -194 -134.5 -323.5t-336.5 -129.5t-336.5 129.5t-134.5 323.5zM229 1286q0 62 42.5 105t103.5 43t104 -43t43 -105q0 -61 -42.5 -103t-104.5 -42t-104 42t-42 103zM616 1286 q0 62 42.5 105t103.5 43t104 -43t43 -105q0 -61 -42.5 -103t-104.5 -42t-104 42t-42 103z" />
<glyph unicode="&#xfd;" horiz-adv-x="1122" d="M-8 1024h307l268 -518l269 518h307l-547 -1047q-14 -27 -35.5 -70.5t-35 -70t-34.5 -63.5t-38.5 -59.5t-42.5 -48t-50.5 -39t-59 -23t-71.5 -9.5q-54 0 -94.5 17t-61 44.5t-30.5 56t-10 57.5q0 62 41.5 105.5t105.5 43.5q62 0 88 -37q-21 -18 -23.5 -45t16.5 -47t52 -20 q99 0 213 231zM459 1120l63 178q3 7 12 34t14.5 41.5t19.5 38t29.5 36.5t40.5 23t56 10q59 0 99.5 -36.5t40.5 -88.5q0 -75 -82 -129l-162 -107h-131z" />
<glyph unicode="&#xfe;" horiz-adv-x="1267" d="M109 -389v1823h276v-521q116 134 309 134q145 0 264.5 -72.5t187.5 -195t68 -267.5t-68 -267.5t-187.5 -195t-264.5 -72.5q-193 0 -309 134v-500h-276zM385 512q0 -111 79 -190.5t191 -79.5q110 0 189.5 80t79.5 190q0 112 -79 191t-190 79q-113 0 -191.5 -79t-78.5 -191 z" />
<glyph unicode="&#xff;" horiz-adv-x="1122" d="M-8 1024h307l268 -518l269 518h307l-547 -1047q-14 -27 -35.5 -70.5t-35 -70t-34.5 -63.5t-38.5 -59.5t-42.5 -48t-50.5 -39t-59 -23t-71.5 -9.5q-54 0 -94.5 17t-61 44.5t-30.5 56t-10 57.5q0 62 41.5 105.5t105.5 43.5q62 0 88 -37q-21 -18 -23.5 -45t16.5 -47t52 -20 q99 0 213 231zM227 1286q0 62 42.5 105t103.5 43t104 -43t43 -105q0 -61 -42.5 -103t-104.5 -42t-104 42t-42 103zM614 1286q0 62 42.5 105t103.5 43t104 -43t43 -105q0 -61 -42.5 -103t-104.5 -42t-104 42t-42 103z" />
<glyph unicode="&#x152;" horiz-adv-x="1910" d="M53 512q0 145 71 267.5t199 195t285 72.5q121 0 224.5 -44.5t177.5 -123.5q155 168 413 168q190 0 300 -91t110 -223q0 -76 -36.5 -137.5t-96.5 -93.5q-91 -49 -270 -49q-166 0 -271 32q4 -118 85.5 -182.5t221.5 -64.5q208 0 363 159v-301q-70 -54 -171 -86.5 t-220 -32.5q-279 0 -430 164q-74 -77 -177 -120.5t-223 -43.5q-157 0 -285 72.5t-199 195t-71 267.5zM344 512q0 -111 76 -189.5t188 -78.5q109 0 185.5 79t76.5 189q0 112 -76.5 191t-185.5 79q-112 0 -188 -78.5t-76 -191.5zM1186 664q74 -17 178 -17q92 0 136 16.5 t44 61.5q0 43 -37.5 62.5t-95.5 19.5q-168 0 -225 -143z" />
<glyph unicode="&#x153;" horiz-adv-x="1910" d="M53 512q0 145 71 267.5t199 195t285 72.5q121 0 224.5 -44.5t177.5 -123.5q155 168 413 168q190 0 300 -91t110 -223q0 -76 -36.5 -137.5t-96.5 -93.5q-91 -49 -270 -49q-166 0 -271 32q4 -118 85.5 -182.5t221.5 -64.5q208 0 363 159v-301q-70 -54 -171 -86.5 t-220 -32.5q-279 0 -430 164q-74 -77 -177 -120.5t-223 -43.5q-157 0 -285 72.5t-199 195t-71 267.5zM344 512q0 -111 76 -189.5t188 -78.5q109 0 185.5 79t76.5 189q0 112 -76.5 191t-185.5 79q-112 0 -188 -78.5t-76 -191.5zM1186 664q74 -17 178 -17q92 0 136 16.5 t44 61.5q0 43 -37.5 62.5t-95.5 19.5q-168 0 -225 -143z" />
<glyph unicode="&#x178;" horiz-adv-x="1122" d="M-8 1024h307l268 -518l269 518h307l-537 -1026q-119 -227 -212.5 -315.5t-209.5 -88.5q-76 0 -153 39v252q55 -30 108 -30q58 0 112.5 72.5t162.5 285.5zM227 1286q0 62 42.5 105t103.5 43t104 -43t43 -105q0 -61 -42.5 -103t-104.5 -42t-104 42t-42 103zM614 1286 q0 62 42.5 105t103.5 43t104 -43t43 -105q0 -61 -42.5 -103t-104.5 -42t-104 42t-42 103z" />
<glyph unicode="&#x2c6;" horiz-adv-x="765" d="M27 1120l200 260q35 45 67.5 66.5t88.5 21.5t88.5 -21.5t67.5 -66.5l200 -260h-112l-244 140l-244 -140h-112z" />
<glyph unicode="&#x2dc;" horiz-adv-x="780" d="M0 1139q0 50 6 93.5t23 87.5t43.5 75.5t70.5 51t101 19.5q36 0 69 -9.5t55 -21t64 -36.5q75 -47 135 -47q64 0 97 32t43 74h73q0 -50 -6 -93.5t-23 -88t-43.5 -76t-70 -51t-100.5 -19.5q-36 0 -69.5 10t-55 21t-64.5 37q-75 47 -135 47q-64 0 -96.5 -32t-42.5 -74h-74z " />
<glyph unicode="&#x2000;" horiz-adv-x="753" />
<glyph unicode="&#x2001;" horiz-adv-x="1507" />
<glyph unicode="&#x2002;" horiz-adv-x="753" />
<glyph unicode="&#x2003;" horiz-adv-x="1507" />
<glyph unicode="&#x2004;" horiz-adv-x="502" />
<glyph unicode="&#x2005;" horiz-adv-x="376" />
<glyph unicode="&#x2006;" horiz-adv-x="251" />
<glyph unicode="&#x2007;" horiz-adv-x="251" />
<glyph unicode="&#x2008;" horiz-adv-x="188" />
<glyph unicode="&#x2009;" horiz-adv-x="301" />
<glyph unicode="&#x200a;" horiz-adv-x="83" />
<glyph unicode="&#x2010;" horiz-adv-x="749" d="M80 389v246h590v-246h-590z" />
<glyph unicode="&#x2011;" horiz-adv-x="749" d="M80 389v246h590v-246h-590z" />
<glyph unicode="&#x2012;" horiz-adv-x="749" d="M80 389v246h590v-246h-590z" />
<glyph unicode="&#x2013;" d="M78 461v102h1024v-102h-1024z" />
<glyph unicode="&#x2014;" horiz-adv-x="1638" d="M78 461v102h1483v-102h-1483z" />
<glyph unicode="&#x2018;" horiz-adv-x="487" d="M61 1030q0 64 24.5 126.5t62.5 110.5t84.5 88.5t89 65.5t77.5 37v-69q-61 -88 -61 -175q0 -22 4 -40.5t9 -30t18 -37.5q30 -58 30 -105q0 -70 -49 -117.5t-119 -47.5t-120 49t-50 145z" />
<glyph unicode="&#x2019;" horiz-adv-x="487" d="M88 836v69q62 89 62 174q0 31 -6.5 52t-24.5 57q-31 60 -31 104q0 70 49 118t119 48t120 -49t50 -145q0 -64 -24.5 -126.5t-62.5 -110.5t-84.5 -88.5t-89 -65.5t-77.5 -37z" />
<glyph unicode="&#x201a;" horiz-adv-x="487" d="M88 190q0 70 49 118t119 48t120 -49t50 -145q0 -64 -24.5 -126.5t-62.5 -110.5t-84.5 -88.5t-89 -65.5t-77.5 -37v69q62 89 62 174q0 31 -6.5 52t-24.5 57q-31 60 -31 104z" />
<glyph unicode="&#x201c;" horiz-adv-x="913" d="M61 1030q0 64 24.5 126.5t62.5 110.5t84.5 88.5t89 65.5t77.5 37v-69q-61 -88 -61 -175q0 -22 4 -40.5t9 -30t18 -37.5q30 -58 30 -105q0 -70 -49 -117.5t-119 -47.5t-120 49t-50 145zM487 1030q0 64 24.5 126.5t62.5 110.5t84.5 88.5t89 65.5t77.5 37v-69 q-61 -88 -61 -175q0 -22 4 -40.5t9 -30t18 -37.5q30 -58 30 -105q0 -70 -49 -117.5t-119 -47.5t-120 49t-50 145z" />
<glyph unicode="&#x201d;" horiz-adv-x="913" d="M88 836v69q62 89 62 174q0 31 -6.5 52t-24.5 57q-31 60 -31 104q0 70 49 118t119 48t120 -49t50 -145q0 -64 -24.5 -126.5t-62.5 -110.5t-84.5 -88.5t-89 -65.5t-77.5 -37zM514 836v69q61 88 61 174q0 31 -6.5 52.5t-23.5 56.5q-31 60 -31 104q0 70 49 118t119 48 t120 -49t50 -145q0 -64 -24.5 -126.5t-62.5 -110.5t-84.5 -88.5t-89 -65.5t-77.5 -37z" />
<glyph unicode="&#x201e;" horiz-adv-x="913" d="M88 190q0 70 49 118t119 48t120 -49t50 -145q0 -64 -24.5 -126.5t-62.5 -110.5t-84.5 -88.5t-89 -65.5t-77.5 -37v69q62 89 62 174q0 31 -6.5 52t-24.5 57q-31 60 -31 104zM514 190q0 70 49 118t119 48t120 -49t50 -145q0 -64 -24.5 -126.5t-62.5 -110.5t-84.5 -88.5 t-89 -65.5t-77.5 -37v69q61 88 61 174q0 48 -30 109q-31 60 -31 104z" />
<glyph unicode="&#x2022;" horiz-adv-x="790" d="M86 512q0 128 91 218.5t218 90.5q129 0 219.5 -90t90.5 -219q0 -128 -90.5 -219.5t-217.5 -91.5q-129 0 -220 91t-91 220z" />
<glyph unicode="&#x2026;" horiz-adv-x="1554" d="M80 158q0 75 51.5 126.5t126.5 51.5q74 0 126 -51.5t52 -126.5q0 -74 -52 -126t-126 -52q-75 0 -126.5 52t-51.5 126zM598 158q0 75 51.5 126.5t126.5 51.5q74 0 126 -51.5t52 -126.5q0 -74 -52 -126t-126 -52q-75 0 -126.5 52t-51.5 126zM1116 158q0 75 51.5 126.5 t126.5 51.5q74 0 126.5 -51.5t52.5 -126.5q0 -73 -52.5 -125.5t-126.5 -52.5q-75 0 -126.5 52t-51.5 126z" />
<glyph unicode="&#x202f;" horiz-adv-x="301" />
<glyph unicode="&#x2039;" horiz-adv-x="700" d="M55 514l527 524v-315l-207 -209l207 -207v-319z" />
<glyph unicode="&#x203a;" horiz-adv-x="700" d="M94 -12v319l209 207l-209 209v315l527 -524z" />
<glyph unicode="&#x205f;" horiz-adv-x="376" />
<glyph unicode="&#x20ac;" d="M20 410v122h146q-2 18 -2 56q0 39 2 57h-146v123h166q55 205 217.5 328t374.5 123q164 0 309 -82l-114 -230q-88 56 -195 56t-194 -51.5t-129 -143.5h448l-61 -123h-420q-2 -16 -2 -47q0 -46 4 -66h360l-61 -122h-260q44 -83 122 -130t173 -47q159 0 327 132v-297 q-150 -91 -325 -91q-207 0 -364.5 117.5t-209.5 315.5h-166z" />
<glyph unicode="&#x2122;" horiz-adv-x="1544" d="M78 1284v150h491v-150h-166v-510h-159v510h-166zM680 774v660h158l223 -398l223 398h158v-660h-158v385l-219 -385h-8l-219 385v-385h-158z" />
<glyph unicode="&#xe000;" horiz-adv-x="1024" d="M0 0v1024h1024v-1024h-1024z" />
</font>
</defs>
</svg>
