<?xml version="1.0" standalone="no"?>
<!DOCTYPE svg PUBLIC "-//W3C//DTD SVG 1.1//EN" "http://www.w3.org/Graphics/SVG/1.1/DTD/svg11.dtd" >
<svg xmlns="http://www.w3.org/2000/svg">
<metadata></metadata>
<defs>
<font id="EuclidBPBoldBold" horiz-adv-x="1216" >
<font-face units-per-em="2048" ascent="1536" descent="-512" />
<missing-glyph horiz-adv-x="450" />
<glyph unicode="&#xfb01;" horiz-adv-x="1175" d="M33 754v270h149q-63 73 -63 170q0 111 75.5 185.5t200.5 74.5h195v-270h-78q-51 0 -75.5 -22t-24.5 -58q0 -34 23 -57t57 -23h563v-1024h-312v754h-268v-754h-309v754h-133zM715 1286q0 76 53.5 130t130.5 54t130.5 -54t53.5 -130q0 -70 -41 -117h-286q-41 47 -41 117z " />
<glyph unicode="&#xfb02;" horiz-adv-x="1177" d="M33 754v270h149q-63 73 -63 170q0 111 75.5 185.5t200.5 74.5h662v-1454h-312v1184h-233q-51 0 -75.5 -22t-24.5 -58q0 -34 23 -57t57 -23h118v-270h-135v-754h-309v754h-133z" />
<glyph unicode="&#xfb03;" horiz-adv-x="1755" d="M33 754v270h149q-63 73 -63 170q0 111 75.5 185.5t200.5 74.5h215v-270h-98q-51 0 -75.5 -22t-24.5 -58q0 -34 23 -57t57 -23h270q-64 74 -64 170q0 111 76 185.5t201 74.5h194v-270h-77q-51 0 -76 -22t-25 -58q0 -34 23 -57t57 -23h563v-1024h-311v754h-268v-754h-310 v754h-270v-754h-309v754h-133zM1294 1286q0 76 54 130t131 54t130.5 -54t53.5 -130q0 -70 -41 -117h-287q-41 47 -41 117z" />
<glyph unicode="&#xfb04;" horiz-adv-x="1859" d="M33 754v270h149q-63 73 -63 170q0 111 75.5 185.5t200.5 74.5h215v-270h-98q-51 0 -75.5 -22t-24.5 -58q0 -34 23 -57t57 -23h270q-64 74 -64 170q0 111 76 185.5t201 74.5h764v-1454h-312v1184h-335q-51 0 -76 -22t-25 -58q0 -34 23 -57t57 -23h221v-270h-237v-754h-310 v754h-270v-754h-309v754h-133z" />
<glyph horiz-adv-x="0" />
<glyph horiz-adv-x="2048" />
<glyph unicode=" "  horiz-adv-x="450" />
<glyph unicode="&#x09;" horiz-adv-x="450" />
<glyph unicode="&#xa0;" horiz-adv-x="450" />
<glyph unicode="!" horiz-adv-x="626" d="M92 205q0 103 82 172h279q82 -69 82 -172q0 -92 -65 -156.5t-157 -64.5t-156.5 64.5t-64.5 156.5zM158 899v555h311v-555l-61 -377h-189z" />
<glyph unicode="&#x22;" horiz-adv-x="948" d="M137 844v610h260v-610h-260zM551 844v610h260v-610h-260z" />
<glyph unicode="#" horiz-adv-x="1456" d="M51 371v233h244l76 246h-170v233h243l115 371h262l-114 -371h268l115 371h262l-115 -371h168v-233h-242l-76 -246h170v-233h-243l-115 -371h-262l115 371h-269l-114 -371h-263l115 371h-170zM557 604h268l76 246h-268z" />
<glyph unicode="$" horiz-adv-x="1091" d="M61 268l226 185q87 -140 209 -172v290l-50 23q-161 72 -241 189t-80 268q0 154 87 263t224 142v178h260v-180q126 -33 242 -166l-197 -207q-64 70 -104 88v-284l74 -33q299 -134 299 -436q0 -162 -83.5 -272.5t-230.5 -145.5v-178h-260v174q-256 47 -375 274zM436 1063 q0 -60 60 -102v204q-60 -29 -60 -102zM637 289h2q59 33 59 106q0 59 -61 103v-209z" />
<glyph unicode="%" horiz-adv-x="858" d="M113 610v234h632v-234h-632zM154 266q0 116 79.5 196.5t194.5 80.5q116 0 196.5 -80.5t80.5 -196.5q0 -115 -80.5 -194.5t-196.5 -79.5t-195 79t-79 195zM154 1186q0 116 79.5 196t194.5 80q116 0 196.5 -80.5t80.5 -195.5t-80.5 -195t-196.5 -80q-115 0 -194.5 79.5 t-79.5 195.5zM340 266q0 -37 25.5 -62.5t62.5 -25.5t62.5 25.5t25.5 62.5t-25.5 62.5t-62.5 25.5t-62.5 -25.5t-25.5 -62.5zM340 1186q0 -37 25.5 -62.5t62.5 -25.5t62.5 25.5t25.5 62.5t-25.5 62.5t-62.5 25.5t-62.5 -25.5t-25.5 -62.5z" />
<glyph unicode="&#x26;" horiz-adv-x="1261" d="M41 451q0 184 123.5 318t304.5 149l-262 536h829v-270h-354l580 -1184h-344l-74 150q-110 -166 -336 -166q-127 0 -234.5 62.5t-170 170t-62.5 234.5zM340 451q0 -71 49.5 -123t118.5 -52t118.5 52t49.5 123t-49.5 122.5t-118.5 51.5t-118.5 -51.5t-49.5 -122.5z" />
<glyph unicode="'" horiz-adv-x="534" d="M137 844v610h260v-610h-260z" />
<glyph unicode="(" horiz-adv-x="577" d="M113 614q0 538 225 951l227 -101q-192 -450 -192 -850t192 -850l-227 -100q-225 413 -225 950z" />
<glyph unicode=")" horiz-adv-x="577" d="M12 -236q193 452 193 850t-193 850l228 101q225 -413 225 -951q0 -537 -225 -950z" />
<glyph unicode="*" horiz-adv-x="1015" d="M47 1042l66 201l290 -94v305h211v-305l289 96l66 -201l-289 -96l180 -246l-170 -122l-180 243l-182 -243l-170 122l180 246z" />
<glyph unicode="+" horiz-adv-x="1097" d="M102 461v233h330v330h234v-330h329v-233h-329v-330h-234v330h-330z" />
<glyph unicode="," horiz-adv-x="630" d="M137 0v356h357v-356l-132 -315h-178l90 315h-137z" />
<glyph unicode="-" horiz-adv-x="757" d="M88 430v295h582v-295h-582z" />
<glyph unicode="." horiz-adv-x="675" d="M117 205q0 92 64.5 156.5t156.5 64.5t156.5 -64.5t64.5 -156.5t-64.5 -156.5t-156.5 -64.5t-156.5 64.5t-64.5 156.5z" />
<glyph unicode="/" horiz-adv-x="956" d="M0 0l678 1454h278l-677 -1454h-279z" />
<glyph unicode="0" horiz-adv-x="1658" d="M80 727q0 151 60 288.5t160.5 237t239 158.5t289.5 59q202 0 374.5 -99.5t274 -271t101.5 -372.5t-101.5 -372.5t-274 -271t-374.5 -99.5q-151 0 -289.5 59t-239 158.5t-160.5 237t-60 288.5zM391 727q0 -191 124 -323t314 -132t314.5 132t124.5 323t-124.5 323 t-314.5 132t-314 -132t-124 -323z" />
<glyph unicode="1" horiz-adv-x="626" d="M158 0v1159l311 311v-1470h-311z" />
<glyph unicode="2" horiz-adv-x="1187" d="M0 0l446 551q-148 46 -241.5 169t-93.5 281q0 128 65 236.5t176 170.5t240 62t240 -62t177 -170.5t66 -236.5q0 -166 -110 -299l-334 -413h442v-289h-1073zM422 1001q0 -76 47 -129t123 -53t124 53t48 129t-48 128.5t-124 52.5t-123 -52.5t-47 -128.5z" />
<glyph unicode="3" horiz-adv-x="1062" d="M31 188l219 203q79 -119 205 -119q101 0 161 59.5t60 160.5t-60 160t-161 59h-148l215 454h-424v289h879l-242 -512q120 -62 187 -178.5t67 -271.5q0 -230 -141.5 -369t-372.5 -139q-137 0 -253.5 54t-190.5 150z" />
<glyph unicode="4" horiz-adv-x="1206" d="M-31 328l1041 1142v-872h135v-270h-135v-328h-312v328h-729zM539 598h159v174z" />
<glyph unicode="5" horiz-adv-x="1118" d="M102 188l226 209q83 -125 198 -125q90 0 144.5 57.5t54.5 139.5t-54.5 139.5t-144.5 57.5q-68 0 -115.5 -33t-68.5 -88l-201 84v825h793v-289h-481v-217q47 6 94 6q222 0 356.5 -132t134.5 -353t-134.5 -353t-356.5 -132q-140 0 -257.5 53.5t-187.5 150.5z" />
<glyph unicode="6" horiz-adv-x="1095" d="M35 469q0 72 24 137t68 146l383 702h346l-274 -502q204 -12 338.5 -149.5t134.5 -333.5q0 -206 -146 -345.5t-364 -139.5t-364 139.5t-146 345.5zM346 469q0 -82 54.5 -139.5t144.5 -57.5t144 57.5t54 139.5t-54 139.5t-144 57.5t-144.5 -57.5t-54.5 -139.5z" />
<glyph unicode="7" horiz-adv-x="1064" d="M72 1165v289h1007l-659 -1454h-336l528 1165h-540z" />
<glyph unicode="8" horiz-adv-x="1163" d="M72 469q0 116 50 211t140 158q-82 95 -82 229q0 167 117.5 285t284.5 118t284 -118t117 -285q0 -134 -82 -229q90 -63 140.5 -158t50.5 -211q0 -206 -146 -345.5t-364 -139.5t-364 139.5t-146 345.5zM383 469q0 -82 54.5 -139.5t144.5 -57.5t144 57.5t54 139.5t-54 139.5 t-144 57.5t-144.5 -57.5t-54.5 -139.5zM471 1067q0 -48 30 -81.5t81 -33.5t80.5 33.5t29.5 81.5t-29.5 81.5t-80.5 33.5t-81 -33.5t-30 -81.5z" />
<glyph unicode="9" horiz-adv-x="1095" d="M41 985q0 206 146 345.5t364 139.5t364 -139.5t146 -345.5q0 -72 -24 -137t-68 -146l-383 -702h-346l274 502q-204 12 -338.5 149.5t-134.5 333.5zM352 985q0 -82 54.5 -139.5t144.5 -57.5t144.5 57.5t54.5 139.5t-54.5 139.5t-144.5 57.5t-144.5 -57.5t-54.5 -139.5z " />
<glyph unicode=":" horiz-adv-x="675" d="M117 205q0 92 64.5 156.5t156.5 64.5t156.5 -64.5t64.5 -156.5t-64.5 -156.5t-156.5 -64.5t-156.5 64.5t-64.5 156.5zM117 819q0 92 64.5 156.5t156.5 64.5t156.5 -64.5t64.5 -156.5t-64.5 -156.5t-156.5 -64.5t-156.5 64.5t-64.5 156.5z" />
<glyph unicode=";" horiz-adv-x="630" d="M94 819q0 92 64.5 156.5t156.5 64.5t157 -64.5t65 -156.5t-65 -156.5t-157 -64.5t-156.5 64.5t-64.5 156.5zM137 0v356h357v-356l-132 -315h-178l90 315h-137z" />
<glyph unicode="&#x3c;" horiz-adv-x="915" d="M57 580l592 596l174 -175l-420 -421l420 -422l-174 -174z" />
<glyph unicode="=" horiz-adv-x="1097" d="M102 250v233h893v-233h-893zM102 672v233h893v-233h-893z" />
<glyph unicode="&#x3e;" horiz-adv-x="915" d="M92 158l420 422l-420 421l174 175l592 -596l-592 -596z" />
<glyph unicode="?" horiz-adv-x="1001" d="M18 1182q55 129 173.5 208.5t263.5 79.5q203 0 339 -138t136 -337t-136 -336t-339 -137h-140v289h140q67 0 115 47.5t48 136.5q0 90 -48 138.5t-115 48.5q-58 0 -103.5 -36.5t-56.5 -103.5zM233 205q0 106 82 172h279q82 -69 82 -172q0 -92 -64.5 -156.5t-156.5 -64.5 t-157 64.5t-65 156.5z" />
<glyph unicode="@" horiz-adv-x="1634" d="M82 727q0 151 59 288.5t158.5 237t237 158.5t288.5 59q156 0 294 -60t231.5 -158t147.5 -225t54 -259q0 -109 -27 -191.5t-75 -131.5t-108.5 -73t-131.5 -24q-150 0 -213 94q-54 -51 -109 -72.5t-130 -21.5q-155 0 -242.5 97.5t-87.5 256.5q0 96 46.5 185.5t133.5 148 t191 58.5q120 0 184 -64l6 49h203l-53 -411q-9 -68 16 -104t80 -36q59 0 99 69.5t40 170.5q0 97 -39.5 191t-109 168.5t-174.5 120.5t-226 46q-154 0 -284 -76t-205.5 -206.5t-75.5 -284.5t75.5 -284.5t205.5 -206.5t284 -76q157 0 291 78l70 -160q-169 -94 -361 -94 q-151 0 -288.5 59t-237 158.5t-158.5 237t-59 288.5zM635 698q0 -73 38 -121.5t111 -48.5q86 0 144 68l30 238q-27 35 -64 52t-71 17q-82 0 -135 -62.5t-53 -142.5z" />
<glyph unicode="A" horiz-adv-x="1392" d="M-20 0l716 1470l717 -1470h-344l-104 225h-537l-104 -225h-344zM559 492h275l-138 303z" />
<glyph unicode="B" horiz-adv-x="1271" d="M137 0v1454h547q178 0 305 -127t127 -305q0 -148 -102 -250q95 -51 150 -138.5t55 -201.5q0 -180 -128.5 -306t-312.5 -126h-641zM461 301h287q65 0 108 41t43 102t-43 103.5t-108 42.5h-287v-289zM461 866h186q65 0 108.5 41.5t43.5 102.5t-43.5 103t-108.5 42h-186 v-289z" />
<glyph unicode="C" horiz-adv-x="1452" d="M70 727q0 151 59 288.5t158.5 237t237 158.5t288.5 59q184 0 344.5 -85t263.5 -230l-247 -203q-57 92 -152 147.5t-209 55.5q-175 0 -294.5 -125.5t-119.5 -302.5t119.5 -302.5t294.5 -125.5q114 0 209 55.5t152 147.5l247 -203q-103 -145 -263.5 -230t-344.5 -85 q-151 0 -288.5 59t-237 158.5t-158.5 237t-59 288.5z" />
<glyph unicode="D" horiz-adv-x="1456" d="M137 0v1454h510q151 0 288 -57.5t235.5 -155t157 -232t58.5 -282.5t-58.5 -282.5t-157 -232t-235.5 -155t-288 -57.5h-510zM465 299h182q179 0 294.5 124.5t115.5 303.5t-115.5 303.5t-294.5 124.5h-182v-856z" />
<glyph unicode="E" horiz-adv-x="1120" d="M137 0v1454h901v-324h-573v-245h450v-316h-450v-245h573v-324h-901z" />
<glyph unicode="F" horiz-adv-x="1058" d="M137 0v1454h860v-324h-532v-245h409v-316h-409v-569h-328z" />
<glyph unicode="G" horiz-adv-x="1492" d="M70 727q0 151 59 288.5t158.5 237t237 158.5t288.5 59q366 0 588 -274l-248 -203q-67 85 -146 123.5t-194 38.5q-175 0 -294.5 -125.5t-119.5 -302.5t119.5 -302.5t294.5 -125.5q179 0 281 72v202h-351l140 308h528v-660q-207 -237 -598 -237q-151 0 -288.5 59 t-237 158.5t-158.5 237t-59 288.5z" />
<glyph unicode="H" horiz-adv-x="1511" d="M137 0v1454h328v-569h582v569h327v-1454h-327v569h-582v-569h-328z" />
<glyph unicode="I" horiz-adv-x="604" d="M137 0v1454h330v-1454h-330z" />
<glyph unicode="J" horiz-adv-x="993" d="M-31 283l262 139q36 -133 156 -133q62 0 100.5 36t38.5 109v1020h328v-1040q0 -111 -35.5 -195.5t-98.5 -134.5t-142.5 -75t-174.5 -25q-94 0 -177 30t-153 99.5t-104 169.5z" />
<glyph unicode="K" horiz-adv-x="1374" d="M137 0v1454h328v-729l508 729h377l-510 -733l575 -721h-405l-545 682v-682h-328z" />
<glyph unicode="L" horiz-adv-x="1060" d="M137 0v1454h330v-1128h563v-326h-893z" />
<glyph unicode="M" horiz-adv-x="1724" d="M137 0v1470l725 -727l725 727v-1470h-327v713l-398 -398l-397 398v-713h-328z" />
<glyph unicode="N" horiz-adv-x="1519" d="M137 0v1470l918 -776v760h327v-1470l-917 776v-760h-328z" />
<glyph unicode="O" horiz-adv-x="1626" d="M70 727q0 151 59 288.5t158.5 237t237 158.5t288.5 59t288.5 -59t237 -158.5t158.5 -237t59 -288.5t-59 -288.5t-158.5 -237t-237 -158.5t-288.5 -59t-288.5 59t-237 158.5t-158.5 237t-59 288.5zM399 727q0 -177 119.5 -302.5t294.5 -125.5t294.5 125.5t119.5 302.5 t-119.5 302.5t-294.5 125.5t-294.5 -125.5t-119.5 -302.5z" />
<glyph unicode="P" horiz-adv-x="1140" d="M137 0v1454h479q140 0 254.5 -66t179 -179t64.5 -248t-64.5 -248t-179 -179.5t-254.5 -66.5h-151v-467h-328zM465 772h147q78 0 131.5 57t53.5 132t-53.5 130.5t-131.5 55.5h-147v-375z" />
<glyph unicode="Q" horiz-adv-x="1667" d="M70 727q0 151 59 288.5t158.5 237t237 158.5t288.5 59t288.5 -59t237 -158.5t158.5 -237t59 -288.5q0 -187 -86 -346l207 -168l-186 -229l-207 168q-208 -168 -471 -168q-151 0 -288.5 59t-237 158.5t-158.5 237t-59 288.5zM399 727q0 -177 119.5 -302.5t294.5 -125.5 q120 0 215 61l-221 179l186 227l213 -172q21 62 21 133q0 177 -119.5 302.5t-294.5 125.5t-294.5 -125.5t-119.5 -302.5z" />
<glyph unicode="R" horiz-adv-x="1280" d="M137 0v1454h549q178 0 305 -127t127 -305q0 -135 -76 -246t-202 -158l471 -618h-391l-451 590h-6v-590h-326zM463 866h186q65 0 108.5 41.5t43.5 102.5t-43.5 103t-108.5 42h-186v-289z" />
<glyph unicode="S" horiz-adv-x="1064" d="M35 268l248 203q49 -78 122 -129t146 -51q139 0 139 104q0 49 -38 84.5t-132 77.5l-82 37q-164 74 -252 191.5t-88 265.5q0 123 63 220t163.5 148t216.5 51q129 0 224 -39.5t183 -142.5l-221 -233q-53 65 -92.5 86.5t-93.5 21.5q-45 0 -79 -26.5t-34 -73.5 q0 -54 44.5 -91t152.5 -85l77 -35q318 -142 318 -436q0 -195 -129.5 -313.5t-333.5 -118.5q-177 0 -312.5 72.5t-209.5 211.5z" />
<glyph unicode="T" horiz-adv-x="1103" d="M39 1130v324h1026v-324h-346v-1130h-334v1130h-346z" />
<glyph unicode="U" horiz-adv-x="1437" d="M123 590v864h328v-868q0 -131 73.5 -209t194.5 -78t194.5 78t73.5 209v868h328v-864q0 -272 -166.5 -439t-429.5 -167t-429.5 167t-166.5 439z" />
<glyph unicode="V" horiz-adv-x="1331" d="M-20 1454h364l322 -727l321 727h365l-686 -1470z" />
<glyph unicode="W" horiz-adv-x="1794" d="M10 1454h334l225 -682l328 698l328 -698l225 682h334l-504 -1470l-383 837l-383 -837z" />
<glyph unicode="X" horiz-adv-x="1380" d="M0 0l459 729l-428 725h379l280 -483l281 483h379l-428 -725l458 -729h-381l-309 500l-309 -500h-381z" />
<glyph unicode="Y" horiz-adv-x="1343" d="M-31 1454h383l318 -510l317 510h387l-538 -844v-610h-328v610z" />
<glyph unicode="Z" horiz-adv-x="1277" d="M16 0l674 1130h-588v324h1147l-674 -1130h631v-324h-1190z" />
<glyph unicode="[" horiz-adv-x="593" d="M121 -326v1880h473v-221h-213v-1437h213v-222h-473z" />
<glyph unicode="\" horiz-adv-x="956" d="M0 1454h279l677 -1454h-278z" />
<glyph unicode="]" horiz-adv-x="593" d="M0 -104h213v1437h-213v221h473v-1880h-473v222z" />
<glyph unicode="^" horiz-adv-x="1191" d="M27 616l569 854l569 -854h-280l-289 433l-289 -433h-280z" />
<glyph unicode="_" horiz-adv-x="892" d="M0 -51h893v-234h-893v234z" />
<glyph unicode="`" horiz-adv-x="886" d="M164 1454h354l164 -338h-225z" />
<glyph unicode="a" d="M66 512q0 141 59.5 261t174 193.5t261.5 73.5q132 0 225 -77v61h310v-1024h-310v61q-93 -77 -225 -77q-147 0 -261.5 73.5t-174 193.5t-59.5 261zM377 512q0 -105 64 -175.5t171 -70.5q110 0 174 86v320q-64 86 -174 86q-107 0 -171 -70.5t-64 -175.5z" />
<glyph unicode="b" d="M121 0v1454h309v-491q93 77 225 77q111 0 205 -43t157 -115.5t98.5 -168.5t35.5 -201t-35.5 -201t-98.5 -168.5t-157 -115.5t-205 -43q-132 0 -225 77v-61h-309zM430 352q64 -86 174 -86q107 0 171.5 70.5t64.5 175.5t-64.5 175.5t-171.5 70.5q-110 0 -174 -86v-320z" />
<glyph unicode="c" horiz-adv-x="1069" d="M61 512q0 143 71 264.5t194 192.5t268 71q139 0 257.5 -65t190.5 -176l-245 -174q-32 59 -84.5 93t-118.5 34q-96 0 -158.5 -67.5t-62.5 -172.5t62.5 -172.5t158.5 -67.5q66 0 118.5 34t84.5 93l245 -174q-72 -111 -190.5 -176t-257.5 -65q-145 0 -268 71t-194 192.5 t-71 264.5z" />
<glyph unicode="d" d="M66 512q0 141 59.5 261t174 193.5t261.5 73.5q132 0 225 -77v491h310v-1454h-310v61q-93 -77 -225 -77q-147 0 -261.5 73.5t-174 193.5t-59.5 261zM377 512q0 -105 64 -175.5t171 -70.5q110 0 174 86v320q-64 86 -174 86q-107 0 -171 -70.5t-64 -175.5z" />
<glyph unicode="e" horiz-adv-x="1142" d="M61 512q0 228 147.5 378t381.5 150q99 0 187 -32t156.5 -92.5t109 -155.5t40.5 -213q0 -43 -6 -90h-719q6 -49 28.5 -87t55 -60t68.5 -33t72 -11q149 0 219 129l246 -166q-72 -113 -193 -179t-270 -66q-101 0 -195.5 39t-167 106.5t-116.5 167.5t-44 215zM362 637h416 l-2 12q-14 71 -71 107.5t-134 36.5q-68 0 -128.5 -36.5t-80.5 -119.5z" />
<glyph unicode="f" horiz-adv-x="741" d="M33 754v270h149q-63 73 -63 170q0 111 75.5 185.5t200.5 74.5h318v-270h-201q-51 0 -75.5 -22t-24.5 -58q0 -34 23 -57t57 -23h221v-270h-238v-754h-309v754h-133z" />
<glyph unicode="g" horiz-adv-x="1193" d="M53 549q0 95 33 182.5t92.5 156.5t153 110.5t205.5 41.5q132 0 225 -77v61h309v-825q43 -100 43 -201q0 -84 -30.5 -152t-81.5 -112.5t-120.5 -74.5t-145 -43t-158.5 -13q-285 0 -461 114l139 273q137 -105 301 -105q103 0 168.5 39t65.5 125q0 50 -27 86 q-94 -78 -227 -78q-112 0 -205.5 41.5t-153 111t-92.5 157t-33 182.5zM365 549q0 -84 57.5 -146.5t155.5 -62.5q114 0 184 86v246q-70 86 -184 86q-98 0 -155.5 -62.5t-57.5 -146.5z" />
<glyph unicode="h" horiz-adv-x="1222" d="M121 0v1454h309v-491q96 77 236 77q212 0 329 -128.5t117 -340.5v-571h-309v516q0 110 -46.5 176t-142.5 66q-46 0 -96.5 -23.5t-87.5 -64.5v-670h-309z" />
<glyph unicode="i" horiz-adv-x="552" d="M92 1286q0 76 54 130t130 54q77 0 131 -54t54 -130q0 -70 -41 -117h-287q-41 47 -41 117zM121 0v1024h311v-1024h-311z" />
<glyph unicode="j" horiz-adv-x="552" d="M-92 -84h51q80 0 121 27t41 96v985h311v-1024q0 -183 -122 -280t-330 -97h-72v293zM92 1286q0 76 54 130t130 54q77 0 131 -54t54 -130q0 -70 -41 -117h-287q-41 47 -41 117z" />
<glyph unicode="k" horiz-adv-x="1148" d="M121 0v1454h309v-897l334 467h356l-346 -485l400 -539h-365l-379 510v-510h-309z" />
<glyph unicode="l" horiz-adv-x="552" d="M121 0v1454h311v-1454h-311z" />
<glyph unicode="m" horiz-adv-x="1822" d="M121 0v1024h309v-61q45 35 107.5 56t126.5 21q181 0 290 -125q51 53 135 89t193 36q111 0 195.5 -37t134.5 -102t75 -148t25 -182v-571h-309v516q0 240 -162 240q-52 0 -98.5 -23.5t-77.5 -64.5q6 -46 6 -97v-571h-309v516q0 240 -162 240q-103 0 -170 -80v-676h-309z " />
<glyph unicode="n" horiz-adv-x="1222" d="M121 0v1024h309v-61q96 77 236 77q212 0 329 -128.5t117 -340.5v-571h-309v516q0 110 -46.5 176t-142.5 66q-46 0 -96.5 -23.5t-87.5 -64.5v-670h-309z" />
<glyph unicode="o" horiz-adv-x="1187" d="M61 512q0 143 71 264.5t194 192.5t268 71t267.5 -71t193.5 -192.5t71 -264.5t-71 -264.5t-193.5 -192.5t-267.5 -71t-268 71t-194 192.5t-71 264.5zM373 512q0 -105 62.5 -172.5t158.5 -67.5t158.5 67.5t62.5 172.5t-62.5 172.5t-158.5 67.5t-158.5 -67.5t-62.5 -172.5z " />
<glyph unicode="p" d="M121 -377v1401h309v-61q93 77 225 77q111 0 205 -43t157 -115.5t98.5 -168.5t35.5 -201t-35.5 -201t-98.5 -168.5t-157 -115.5t-205 -43q-132 0 -225 77v-438h-309zM430 352q64 -86 174 -86q107 0 171.5 70.5t64.5 175.5t-64.5 175.5t-171.5 70.5q-110 0 -174 -86v-320z " />
<glyph unicode="q" d="M66 512q0 141 59.5 261t174 193.5t261.5 73.5q132 0 225 -77v61h310v-1401h-310v438q-93 -77 -225 -77q-147 0 -261.5 73.5t-174 193.5t-59.5 261zM377 512q0 -105 64 -175.5t171 -70.5q110 0 174 86v320q-64 86 -174 86q-107 0 -171 -70.5t-64 -175.5z" />
<glyph unicode="r" horiz-adv-x="802" d="M121 0v1024h309v-90q84 106 234 106q58 0 110 -16v-322q-66 35 -158 35q-49 0 -99.5 -18t-86.5 -49v-670h-309z" />
<glyph unicode="s" horiz-adv-x="849" d="M12 201l236 159q69 -124 188 -124q80 0 80 47q0 28 -23.5 43t-105.5 47l-53 20q-133 52 -202 136.5t-69 193.5q0 139 101.5 228t251.5 89q212 0 323 -161l-176 -174q-65 92 -147 92q-74 0 -74 -47q0 -29 25.5 -45t109.5 -48l43 -16q144 -55 209.5 -135.5t65.5 -196.5 q0 -152 -104.5 -238.5t-266.5 -86.5q-288 0 -412 217z" />
<glyph unicode="t" horiz-adv-x="843" d="M-25 1024h201v154l309 153v-307h324l-68 -270h-256v-351q0 -64 28 -92t91 -28h168v-283h-283q-145 0 -229 84.5t-84 230.5v439h-133z" />
<glyph unicode="u" horiz-adv-x="1222" d="M111 453v571h309v-516q0 -109 45.5 -175.5t134.5 -66.5q58 0 110.5 27.5t82.5 77.5v653h309v-1024h-309v76q-45 -42 -112 -67t-132 -25q-204 0 -321 128.5t-117 340.5z" />
<glyph unicode="v" horiz-adv-x="1130" d="M-31 1024h357l239 -446l240 446h356l-596 -1040z" />
<glyph unicode="w" horiz-adv-x="1495" d="M0 1024h326l170 -575l252 591l251 -591l170 575h326l-326 -1024h-235l-186 420l-187 -420h-235z" />
<glyph unicode="x" horiz-adv-x="1126" d="M-6 0l368 516l-350 508h359l192 -293l193 293h358l-350 -508l369 -516h-359l-211 307l-211 -307h-358z" />
<glyph unicode="y" horiz-adv-x="1060" d="M-10 1024h327l213 -647l213 647h328l-516 -1401h-328l140 377z" />
<glyph unicode="z" horiz-adv-x="1050" d="M25 0l475 758h-414v266h930l-473 -756h442v-268h-960z" />
<glyph unicode="{" horiz-adv-x="659" d="M61 504v221h17q56 0 82 30t26 79v430q0 132 79.5 211t211.5 79h182v-221h-96q-63 0 -90 -26.5t-27 -89.5v-402q0 -86 -34.5 -136.5t-92.5 -64.5q58 -14 92.5 -64t34.5 -136v-402q0 -63 27 -89.5t90 -26.5h96v-222h-170q-133 0 -218 80t-85 211v430q0 49 -26 79t-82 30 h-17z" />
<glyph unicode="|" horiz-adv-x="575" d="M158 -377v1831h260v-1831h-260z" />
<glyph unicode="}" horiz-adv-x="659" d="M0 -104h96q63 0 90 26.5t27 89.5v402q0 86 34.5 136t92.5 64q-58 14 -92.5 64.5t-34.5 136.5v402q0 63 -27 89.5t-90 26.5h-96v221h182q132 0 211.5 -79t79.5 -211v-430q0 -48 26.5 -78.5t82.5 -30.5h16v-221h-16q-56 0 -82.5 -30.5t-26.5 -78.5v-430q0 -131 -85 -211 t-218 -80h-170v222z" />
<glyph unicode="~" horiz-adv-x="1126" d="M117 365v276l280 172l332 -192l281 170v-277l-281 -172l-332 193z" />
<glyph unicode="&#xa1;" horiz-adv-x="626" d="M92 872q0 92 64.5 157t156.5 65t157 -65t65 -157q0 -103 -82 -172h-279q-82 69 -82 172zM158 178l61 377h189l61 -377v-555h-311v555z" />
<glyph unicode="&#xa2;" horiz-adv-x="1132" d="M88 512q0 183 113 326t288 186v180h261v-180q100 -25 182.5 -83.5t136.5 -141.5l-246 -174q-49 86 -133 116v-458q84 30 133 116l246 -174q-54 -83 -136.5 -141.5t-182.5 -83.5v-180h-261v180q-175 43 -288 186t-113 326zM399 512q0 -84 41 -144.5t109 -82.5v454 q-68 -22 -109 -82.5t-41 -144.5z" />
<glyph unicode="&#xa3;" horiz-adv-x="1241" d="M123 0v289h156v317h-156v240h131q-33 67 -33 168q0 115 61 219.5t171 170.5t241 66q192 0 329.5 -132.5t145.5 -323.5h-311q0 73 -47 120.5t-117 47.5q-69 0 -115.5 -47.5t-46.5 -120.5t46.5 -120.5t115.5 -47.5h164v-240h-268v-317h579v-289h-1046z" />
<glyph unicode="&#xa5;" horiz-adv-x="1400" d="M6 1454h367l325 -528l330 528h367l-389 -610h213v-234h-363v-157h363v-234h-363v-219h-311v219h-363v234h363v157h-363v234h213z" />
<glyph unicode="&#xa6;" horiz-adv-x="575" d="M158 -377v787h260v-787h-260zM158 670v784h260v-784h-260z" />
<glyph unicode="&#xa7;" horiz-adv-x="942" d="M102 1145q0 150 106 237.5t255 87.5q129 0 220.5 -58t139.5 -159l-202 -137q-35 70 -70 101.5t-90 31.5q-42 0 -70.5 -27t-28.5 -75q0 -35 9.5 -61t38.5 -60t86.5 -74t150.5 -94q86 -47 138.5 -133t52.5 -188q0 -86 -37.5 -161.5t-102.5 -127.5q84 -79 113 -152.5 t29 -167.5q0 -150 -106 -237.5t-255 -87.5q-129 0 -220.5 58t-139.5 159l203 137q35 -70 69.5 -101.5t89.5 -31.5q42 0 70.5 27t28.5 75q0 35 -9.5 61t-38.5 60t-86.5 74t-150.5 94q-86 47 -138.5 133t-52.5 189q0 86 37.5 161t102.5 127q-84 79 -113 152.5t-29 167.5z M360 537q0 -44 33.5 -77.5t77.5 -33.5t77.5 33.5t33.5 77.5t-33.5 77t-77.5 33t-77.5 -33t-33.5 -77z" />
<glyph unicode="&#xa8;" horiz-adv-x="1183" d="M184 1284q0 68 48 116t116 48t116 -48t48 -116t-48 -116t-116 -48t-116 48t-48 116zM672 1284q0 68 48 116t116 48q67 0 115 -48t48 -116t-48 -116t-115 -48q-68 0 -116 48t-48 116z" />
<glyph unicode="&#xa9;" horiz-adv-x="1650" d="M82 727q0 151 59 288.5t158.5 237t237 158.5t288.5 59q202 0 373 -99.5t271 -270.5t100 -373t-100 -373t-271 -270.5t-373 -99.5q-151 0 -288.5 59t-237 158.5t-158.5 237t-59 288.5zM297 727q0 -143 71 -264.5t192.5 -192.5t264.5 -71t265 71t193 192.5t71 264.5 t-71 264.5t-193 192.5t-265 71t-264.5 -71t-192.5 -192.5t-71 -264.5zM494 727q0 145 102.5 247.5t247.5 102.5q91 0 170 -44.5t125 -119.5l-166 -116q-18 38 -52 61t-77 23q-62 0 -103 -45t-41 -109t41 -109t103 -45q43 0 77 23t52 61l166 -116q-46 -75 -125 -119.5 t-170 -44.5q-145 0 -247.5 102.5t-102.5 247.5z" />
<glyph unicode="&#xab;" horiz-adv-x="1177" d="M70 512l336 494l204 -140l-241 -354l241 -354l-204 -140zM551 512l336 494l205 -140l-242 -354l242 -354l-205 -140z" />
<glyph unicode="&#xac;" horiz-adv-x="1097" d="M102 461v233h893v-604h-233v371h-660z" />
<glyph unicode="&#xad;" horiz-adv-x="757" d="M88 430v295h582v-295h-582z" />
<glyph unicode="&#xae;" horiz-adv-x="1650" d="M82 727q0 151 59 288.5t158.5 237t237 158.5t288.5 59q202 0 373 -99.5t271 -270.5t100 -373t-100 -373t-271 -270.5t-373 -99.5q-151 0 -288.5 59t-237 158.5t-158.5 237t-59 288.5zM297 727q0 -143 71 -264.5t192.5 -192.5t264.5 -71t265 71t193 192.5t71 264.5 t-71 264.5t-193 192.5t-265 71t-264.5 -71t-192.5 -192.5t-71 -264.5zM596 383v688h266q91 0 151 -61t60 -150q0 -61 -29 -110t-79 -76l176 -291h-199l-162 266v-266h-184zM776 799h64q24 0 38.5 15.5t14.5 37.5q0 23 -13.5 38t-37.5 15h-66v-106z" />
<glyph unicode="&#xaf;" horiz-adv-x="1011" d="M168 1186v196h676v-196h-676z" />
<glyph unicode="&#xb0;" horiz-adv-x="643" d="M72 1212q0 103 73.5 176.5t176.5 73.5t176 -73.5t73 -176.5t-73 -176t-176 -73t-176.5 73t-73.5 176zM229 1212q0 -38 27.5 -65t65.5 -27t65 27t27 65t-27 65.5t-65 27.5t-65.5 -27.5t-27.5 -65.5z" />
<glyph unicode="&#xb1;" horiz-adv-x="1097" d="M102 0v233h893v-233h-893zM102 563v234h330v227h234v-227h329v-234h-329v-227h-234v227h-330z" />
<glyph unicode="&#xb4;" horiz-adv-x="886" d="M205 1116l164 338h354l-293 -338h-225z" />
<glyph unicode="&#xb5;" horiz-adv-x="1232" d="M121 -377v1401h309v-516q0 -109 45.5 -175.5t134.5 -66.5q46 0 102 29.5t91 79.5v649h309v-1024h-309v76q-45 -42 -112 -67t-132 -25q-67 0 -129 16v-377h-309z" />
<glyph unicode="&#xb6;" horiz-adv-x="1374" d="M61 993q0 125 62 231t168 168t231 62h695v-1831h-261v1561h-174v-1561h-260v909q-125 0 -231 62t-168 168t-62 231z" />
<glyph unicode="&#xb7;" horiz-adv-x="675" d="M117 578q0 92 64.5 156.5t156.5 64.5t156.5 -64.5t64.5 -156.5t-64.5 -157t-156.5 -65t-156.5 65t-64.5 157z" />
<glyph unicode="&#xb8;" horiz-adv-x="720" d="M170 -274l121 274h209l-70 -274h-260z" />
<glyph unicode="&#xbb;" horiz-adv-x="1177" d="M86 158l242 354l-242 354l205 140l336 -494l-336 -494zM567 158l242 354l-242 354l205 140l336 -494l-336 -494z" />
<glyph unicode="&#xbf;" horiz-adv-x="1001" d="M72 78q0 199 136 336t339 137h139v-289h-139q-67 0 -115.5 -47.5t-48.5 -136.5q0 -90 48.5 -138.5t115.5 -48.5q58 0 103.5 36.5t56.5 103.5l276 -140q-55 -129 -173 -208.5t-263 -79.5q-203 0 -339 138t-136 337zM326 868q0 92 64.5 157t156.5 65t156.5 -65t64.5 -157 q0 -106 -82 -172h-278q-82 69 -82 172z" />
<glyph unicode="&#xc0;" horiz-adv-x="1392" d="M-20 0l716 1470l717 -1470h-344l-104 225h-537l-104 -225h-344zM375 1870h340l143 -297h-225zM559 492h275l-138 303z" />
<glyph unicode="&#xc1;" horiz-adv-x="1392" d="M-20 0l716 1470l717 -1470h-344l-104 225h-537l-104 -225h-344zM535 1573l143 297h340l-258 -297h-225zM559 492h275l-138 303z" />
<glyph unicode="&#xc2;" horiz-adv-x="1392" d="M-20 0l716 1470l717 -1470h-344l-104 225h-537l-104 -225h-344zM334 1731l362 155l363 -155l-84 -197l-279 121l-278 -121zM559 492h275l-138 303z" />
<glyph unicode="&#xc3;" horiz-adv-x="1392" d="M-20 0l716 1470l717 -1470h-344l-104 225h-537l-104 -225h-344zM301 1571l8 59q14 108 85.5 173t154.5 65q51 0 102.5 -20.5t91.5 -41t64 -20.5q36 0 56 19.5t32 66.5h197l-9 -60q-14 -108 -85 -172.5t-154 -64.5q-51 0 -102.5 20.5t-91.5 41t-64 20.5q-36 0 -56 -19.5 t-32 -66.5h-197zM559 492h275l-138 303z" />
<glyph unicode="&#xc4;" horiz-adv-x="1392" d="M-20 0l716 1470l717 -1470h-344l-104 225h-537l-104 -225h-344zM289 1720q0 68 48.5 116t115.5 48t115 -48t48 -116t-48 -116t-115 -48t-115.5 48t-48.5 116zM559 492h275l-138 303zM776 1720q0 68 48 116t116 48t116 -48t48 -116t-48 -116t-116 -48t-116 48t-48 116z " />
<glyph unicode="&#xc5;" horiz-adv-x="1392" d="M-20 0l716 1470l717 -1470h-344l-104 225h-537l-104 -225h-344zM451 1780q0 101 72 173t173 72t173.5 -72t72.5 -173t-72.5 -173.5t-173.5 -72.5t-173 72.5t-72 173.5zM559 492h275l-138 303zM600 1780q0 -40 28 -68.5t68 -28.5t68.5 28.5t28.5 68.5t-28.5 68t-68.5 28 t-68 -28t-28 -68z" />
<glyph unicode="&#xc6;" horiz-adv-x="1867" d="M-20 0l544 1116l-166 338h822l157 -324h-475l119 -245h352l154 -316h-350l118 -245h476l157 -324h-819l-104 225h-537l-104 -225h-344zM559 492h275l-138 303z" />
<glyph unicode="&#xc7;" horiz-adv-x="1452" d="M70 727q0 151 59 288.5t158.5 237t237 158.5t288.5 59q184 0 344.5 -85t263.5 -230l-247 -203q-57 92 -152 147.5t-209 55.5q-175 0 -294.5 -125.5t-119.5 -302.5t119.5 -302.5t294.5 -125.5q114 0 209 55.5t152 147.5l247 -203q-88 -124 -220 -205t-286 -104l-67 -264 h-260l117 266q-177 26 -322.5 129.5t-229 263t-83.5 342.5z" />
<glyph unicode="&#xc8;" horiz-adv-x="1120" d="M137 0v1454h901v-324h-573v-245h450v-316h-450v-245h573v-324h-901zM266 1870h340l144 -297h-226z" />
<glyph unicode="&#xc9;" horiz-adv-x="1120" d="M137 0v1454h901v-324h-573v-245h450v-316h-450v-245h573v-324h-901zM426 1573l143 297h340l-258 -297h-225z" />
<glyph unicode="&#xca;" horiz-adv-x="1120" d="M137 0v1454h901v-324h-573v-245h450v-316h-450v-245h573v-324h-901zM225 1731l363 155l362 -155l-84 -197l-278 121l-279 -121z" />
<glyph unicode="&#xcb;" horiz-adv-x="1120" d="M137 0v1454h901v-324h-573v-245h450v-316h-450v-245h573v-324h-901zM180 1720q0 68 48 116t116 48t116 -48t48 -116t-48 -116t-116 -48t-116 48t-48 116zM668 1720q0 68 48 116t115 48t115.5 -48t48.5 -116t-48.5 -116t-115.5 -48t-115 48t-48 116z" />
<glyph unicode="&#xcc;" horiz-adv-x="604" d="M-20 1870h339l144 -297h-225zM137 0v1454h330v-1454h-330z" />
<glyph unicode="&#xcd;" horiz-adv-x="604" d="M137 0v1454h330v-1454h-330zM139 1573l144 297h340l-258 -297h-226z" />
<glyph unicode="&#xce;" horiz-adv-x="604" d="M-61 1731l362 155l363 -155l-84 -197l-279 121l-278 -121zM137 0v1454h330v-1454h-330z" />
<glyph unicode="&#xcf;" horiz-adv-x="604" d="M-55 1720q0 68 48.5 116t115.5 48t115 -48t48 -116t-48 -116t-115 -48t-115.5 48t-48.5 116zM137 0v1454h330v-1454h-330zM330 1720q0 68 48 116t116 48q67 0 115 -48t48 -116t-48 -116t-115 -48q-68 0 -116 48t-48 116z" />
<glyph unicode="&#xd0;" horiz-adv-x="1511" d="M10 584v286h183v584h509q151 0 288 -57.5t236 -155t157.5 -232t58.5 -282.5t-58.5 -282.5t-157.5 -232t-236 -155t-288 -57.5h-509v584h-183zM520 299h182q179 0 294.5 124.5t115.5 303.5t-115.5 303.5t-294.5 124.5h-182v-285h182v-286h-182v-285z" />
<glyph unicode="&#xd1;" horiz-adv-x="1519" d="M137 0v1470l918 -776v760h327v-1470l-917 776v-760h-328zM365 1571l8 59q14 109 85 173.5t154 64.5q51 0 102.5 -20.5t91.5 -41t64 -20.5q36 0 56 19.5t32 66.5h197l-8 -60q-14 -108 -85 -172.5t-155 -64.5q-51 0 -102.5 20.5t-91.5 41t-64 20.5q-36 0 -56 -19.5 t-32 -66.5h-196z" />
<glyph unicode="&#xd2;" horiz-adv-x="1626" d="M70 727q0 151 59 288.5t158.5 237t237 158.5t288.5 59t288.5 -59t237 -158.5t158.5 -237t59 -288.5t-59 -288.5t-158.5 -237t-237 -158.5t-288.5 -59t-288.5 59t-237 158.5t-158.5 237t-59 288.5zM399 727q0 -177 119.5 -302.5t294.5 -125.5t294.5 125.5t119.5 302.5 t-119.5 302.5t-294.5 125.5t-294.5 -125.5t-119.5 -302.5zM492 1870h339l144 -297h-225z" />
<glyph unicode="&#xd3;" horiz-adv-x="1626" d="M70 727q0 151 59 288.5t158.5 237t237 158.5t288.5 59t288.5 -59t237 -158.5t158.5 -237t59 -288.5t-59 -288.5t-158.5 -237t-237 -158.5t-288.5 -59t-288.5 59t-237 158.5t-158.5 237t-59 288.5zM399 727q0 -177 119.5 -302.5t294.5 -125.5t294.5 125.5t119.5 302.5 t-119.5 302.5t-294.5 125.5t-294.5 -125.5t-119.5 -302.5zM651 1573l144 297h340l-258 -297h-226z" />
<glyph unicode="&#xd4;" horiz-adv-x="1626" d="M70 727q0 151 59 288.5t158.5 237t237 158.5t288.5 59t288.5 -59t237 -158.5t158.5 -237t59 -288.5t-59 -288.5t-158.5 -237t-237 -158.5t-288.5 -59t-288.5 59t-237 158.5t-158.5 237t-59 288.5zM399 727q0 -177 119.5 -302.5t294.5 -125.5t294.5 125.5t119.5 302.5 t-119.5 302.5t-294.5 125.5t-294.5 -125.5t-119.5 -302.5zM451 1731l362 155l363 -155l-84 -197l-279 121l-278 -121z" />
<glyph unicode="&#xd5;" horiz-adv-x="1626" d="M70 727q0 151 59 288.5t158.5 237t237 158.5t288.5 59t288.5 -59t237 -158.5t158.5 -237t59 -288.5t-59 -288.5t-158.5 -237t-237 -158.5t-288.5 -59t-288.5 59t-237 158.5t-158.5 237t-59 288.5zM399 727q0 -177 119.5 -302.5t294.5 -125.5t294.5 125.5t119.5 302.5 t-119.5 302.5t-294.5 125.5t-294.5 -125.5t-119.5 -302.5zM418 1571l8 59q14 108 85.5 173t154.5 65q51 0 102.5 -20.5t91.5 -41t64 -20.5q36 0 56 19.5t32 66.5h196l-8 -60q-14 -108 -85 -172.5t-154 -64.5q-51 0 -102.5 20.5t-92 41t-64.5 20.5q-36 0 -56 -19.5t-32 -66.5 h-196z" />
<glyph unicode="&#xd6;" horiz-adv-x="1626" d="M70 727q0 151 59 288.5t158.5 237t237 158.5t288.5 59t288.5 -59t237 -158.5t158.5 -237t59 -288.5t-59 -288.5t-158.5 -237t-237 -158.5t-288.5 -59t-288.5 59t-237 158.5t-158.5 237t-59 288.5zM399 727q0 -177 119.5 -302.5t294.5 -125.5t294.5 125.5t119.5 302.5 t-119.5 302.5t-294.5 125.5t-294.5 -125.5t-119.5 -302.5zM406 1720q0 68 48 116t115 48t115.5 -48t48.5 -116t-48.5 -116t-115.5 -48t-115 48t-48 116zM893 1720q0 68 48.5 116t115.5 48t115.5 -48t48.5 -116t-48.5 -116t-115.5 -48t-115.5 48t-48.5 116z" />
<glyph unicode="&#xd7;" horiz-adv-x="1120" d="M133 274l262 263l-262 262l166 166l262 -263l262 263l164 -166l-262 -262l262 -263l-164 -163l-262 262l-262 -262z" />
<glyph unicode="&#xd8;" horiz-adv-x="1646" d="M59 147l154 154q-133 192 -133 426q0 151 59 288.5t158.5 237t237 158.5t288.5 59q234 0 426 -133l154 154l184 -184l-153 -154q133 -192 133 -426q0 -202 -100 -373t-271 -270.5t-373 -99.5q-236 0 -426 135l-155 -156zM410 727q0 -101 41 -188l567 567q-90 49 -195 49 q-175 0 -294 -125.5t-119 -302.5zM629 348q90 -49 194 -49q175 0 294.5 125.5t119.5 302.5q0 101 -41 188z" />
<glyph unicode="&#xd9;" horiz-adv-x="1437" d="M123 590v864h328v-868q0 -131 73.5 -209t194.5 -78t194.5 78t73.5 209v868h328v-864q0 -272 -166.5 -439t-429.5 -167t-429.5 167t-166.5 439zM397 1870h340l144 -297h-226z" />
<glyph unicode="&#xda;" horiz-adv-x="1437" d="M123 590v864h328v-868q0 -131 73.5 -209t194.5 -78t194.5 78t73.5 209v868h328v-864q0 -272 -166.5 -439t-429.5 -167t-429.5 167t-166.5 439zM557 1573l143 297h340l-258 -297h-225z" />
<glyph unicode="&#xdb;" horiz-adv-x="1437" d="M123 590v864h328v-868q0 -131 73.5 -209t194.5 -78t194.5 78t73.5 209v868h328v-864q0 -272 -166.5 -439t-429.5 -167t-429.5 167t-166.5 439zM356 1731l363 155l362 -155l-84 -197l-278 121l-279 -121z" />
<glyph unicode="&#xdc;" horiz-adv-x="1437" d="M123 590v864h328v-868q0 -131 73.5 -209t194.5 -78t194.5 78t73.5 209v868h328v-864q0 -272 -166.5 -439t-429.5 -167t-429.5 167t-166.5 439zM311 1720q0 68 48.5 116t115.5 48t115.5 -48t48.5 -116t-48.5 -116t-115.5 -48t-115.5 48t-48.5 116zM799 1720q0 68 48.5 116 t115.5 48t115 -48t48 -116t-48 -116t-115 -48t-115.5 48t-48.5 116z" />
<glyph unicode="&#xdd;" horiz-adv-x="1343" d="M-31 1454h383l318 -510l317 510h387l-538 -844v-610h-328v610zM508 1573l143 297h340l-258 -297h-225z" />
<glyph unicode="&#xde;" horiz-adv-x="1140" d="M137 0v1454h328v-233h151q140 0 254.5 -66.5t179 -179.5t64.5 -248t-64.5 -248t-179 -179.5t-254.5 -66.5h-151v-233h-328zM465 539h147q78 0 131.5 56.5t53.5 131.5t-53.5 130.5t-131.5 55.5h-147v-374z" />
<glyph unicode="&#xdf;" horiz-adv-x="1140" d="M121 0v1077q0 183 122 280t330 97h72v-293h-51q-80 0 -121 -27t-41 -96v-14h582v-270l-142 -197q99 -72 156 -181.5t57 -236.5q0 -140 -69 -259t-188 -188t-259 -69v311q85 0 146 60t61 145t-61 145t-146 60v242l121 168h-258v-754h-311z" />
<glyph unicode="&#xe0;" d="M66 512q0 141 59.5 261t174 193.5t261.5 73.5q132 0 225 -77v61h310v-1024h-310v61q-93 -77 -225 -77q-147 0 -261.5 73.5t-174 193.5t-59.5 261zM236 1454h354l164 -338h-226zM377 512q0 -105 64 -175.5t171 -70.5q110 0 174 86v320q-64 86 -174 86q-107 0 -171 -70.5 t-64 -175.5z" />
<glyph unicode="&#xe1;" d="M66 512q0 141 59.5 261t174 193.5t261.5 73.5q132 0 225 -77v61h310v-1024h-310v61q-93 -77 -225 -77q-147 0 -261.5 73.5t-174 193.5t-59.5 261zM377 512q0 -105 64 -175.5t171 -70.5q110 0 174 86v320q-64 86 -174 86q-107 0 -171 -70.5t-64 -175.5zM449 1116l163 338 h355l-293 -338h-225z" />
<glyph unicode="&#xe2;" d="M66 512q0 141 59.5 261t174 193.5t261.5 73.5q132 0 225 -77v61h310v-1024h-310v61q-93 -77 -225 -77q-147 0 -261.5 73.5t-174 193.5t-59.5 261zM291 1264l364 206l365 -206l-107 -187l-258 148l-258 -148zM377 512q0 -105 64 -175.5t171 -70.5q110 0 174 86v320 q-64 86 -174 86q-107 0 -171 -70.5t-64 -175.5z" />
<glyph unicode="&#xe3;" d="M66 512q0 141 59.5 261t174 193.5t261.5 73.5q132 0 225 -77v61h310v-1024h-310v61q-93 -77 -225 -77q-147 0 -261.5 73.5t-174 193.5t-59.5 261zM260 1135l8 59q14 108 85.5 173t154.5 65q51 0 102.5 -20.5t91.5 -41t64 -20.5q36 0 56 19.5t32 66.5h197l-9 -60 q-14 -108 -85 -172.5t-154 -64.5q-51 0 -102.5 20.5t-91.5 41t-64 20.5q-36 0 -56 -19.5t-32 -66.5h-197zM377 512q0 -105 64 -175.5t171 -70.5q110 0 174 86v320q-64 86 -174 86q-107 0 -171 -70.5t-64 -175.5z" />
<glyph unicode="&#xe4;" d="M66 512q0 141 59.5 261t174 193.5t261.5 73.5q132 0 225 -77v61h310v-1024h-310v61q-93 -77 -225 -77q-147 0 -261.5 73.5t-174 193.5t-59.5 261zM248 1284q0 68 48 116t116 48q67 0 115 -48t48 -116t-48 -116t-115 -48q-68 0 -116 48t-48 116zM377 512q0 -105 64 -175.5 t171 -70.5q110 0 174 86v320q-64 86 -174 86q-107 0 -171 -70.5t-64 -175.5zM735 1284q0 68 48.5 116t115.5 48t115.5 -48t48.5 -116t-48.5 -116t-115.5 -48t-115.5 48t-48.5 116z" />
<glyph unicode="&#xe5;" d="M66 512q0 141 59.5 261t174 193.5t261.5 73.5q132 0 225 -77v61h310v-1024h-310v61q-93 -77 -225 -77q-147 0 -261.5 73.5t-174 193.5t-59.5 261zM377 512q0 -105 64 -175.5t171 -70.5q110 0 174 86v320q-64 86 -174 86q-107 0 -171 -70.5t-64 -175.5zM410 1323 q0 101 72 173.5t173 72.5t173.5 -72.5t72.5 -173.5t-72.5 -173.5t-173.5 -72.5t-173 72.5t-72 173.5zM559 1323q0 -40 28 -68t68 -28t68.5 28t28.5 68t-28.5 68t-68.5 28t-68 -28t-28 -68z" />
<glyph unicode="&#xe6;" horiz-adv-x="1746" d="M35 319q0 146 112 228t283 82q127 0 238 -54v29q-11 79 -77 115.5t-161 36.5q-71 0 -141.5 -17.5t-114.5 -44.5l-43 289q148 57 309 57q247 0 383 -139q145 139 371 139q99 0 187 -32t157 -92.5t109.5 -155.5t40.5 -213q0 -36 -7 -90h-718q8 -65 45 -110t82.5 -63 t95.5 -18q149 0 219 129l246 -166q-72 -113 -193 -179t-270 -66q-99 0 -192 36.5t-165 102.5q-154 -139 -385 -139q-183 0 -297 84.5t-114 250.5zM334 328q0 -45 40.5 -65.5t96.5 -20.5q65 0 118 18.5t79 52.5v58q-77 47 -195 47q-139 0 -139 -90zM967 637h415l-2 12 q-14 71 -70.5 107.5t-133.5 36.5q-68 0 -128.5 -36.5t-80.5 -119.5z" />
<glyph unicode="&#xe7;" horiz-adv-x="1069" d="M61 512q0 143 71 264.5t194 192.5t268 71q139 0 257.5 -65t190.5 -176l-245 -174q-32 59 -84.5 93t-118.5 34q-96 0 -158.5 -67.5t-62.5 -172.5t62.5 -172.5t158.5 -67.5q66 0 118.5 34t84.5 93l245 -174q-57 -90 -147.5 -150.5t-198.5 -80.5l-67 -268h-260l118 268 q-184 37 -305 183t-121 335z" />
<glyph unicode="&#xe8;" horiz-adv-x="1142" d="M61 512q0 228 147.5 378t381.5 150q99 0 187 -32t156.5 -92.5t109 -155.5t40.5 -213q0 -43 -6 -90h-719q6 -49 28.5 -87t55 -60t68.5 -33t72 -11q149 0 219 129l246 -166q-72 -113 -193 -179t-270 -66q-101 0 -195.5 39t-167 106.5t-116.5 167.5t-44 215zM246 1454h354 l164 -338h-225zM362 637h416l-2 12q-14 71 -71 107.5t-134 36.5q-68 0 -128.5 -36.5t-80.5 -119.5z" />
<glyph unicode="&#xe9;" horiz-adv-x="1142" d="M61 512q0 228 147.5 378t381.5 150q99 0 187 -32t156.5 -92.5t109 -155.5t40.5 -213q0 -43 -6 -90h-719q6 -49 28.5 -87t55 -60t68.5 -33t72 -11q149 0 219 129l246 -166q-72 -113 -193 -179t-270 -66q-101 0 -195.5 39t-167 106.5t-116.5 167.5t-44 215zM362 637h416 l-2 12q-14 71 -71 107.5t-134 36.5q-68 0 -128.5 -36.5t-80.5 -119.5zM416 1116l164 338h354l-293 -338h-225z" />
<glyph unicode="&#xea;" horiz-adv-x="1142" d="M61 512q0 228 147.5 378t381.5 150q99 0 187 -32t156.5 -92.5t109 -155.5t40.5 -213q0 -43 -6 -90h-719q6 -49 28.5 -87t55 -60t68.5 -33t72 -11q149 0 219 129l246 -166q-72 -113 -193 -179t-270 -66q-101 0 -195.5 39t-167 106.5t-116.5 167.5t-44 215zM225 1264 l365 206l364 -206l-106 -187l-258 148l-258 -148zM362 637h416l-2 12q-14 71 -71 107.5t-134 36.5q-68 0 -128.5 -36.5t-80.5 -119.5z" />
<glyph unicode="&#xeb;" horiz-adv-x="1142" d="M61 512q0 228 147.5 378t381.5 150q99 0 187 -32t156.5 -92.5t109 -155.5t40.5 -213q0 -43 -6 -90h-719q6 -49 28.5 -87t55 -60t68.5 -33t72 -11q149 0 219 129l246 -166q-72 -113 -193 -179t-270 -66q-101 0 -195.5 39t-167 106.5t-116.5 167.5t-44 215zM182 1284 q0 68 48 116t116 48t116 -48t48 -116t-48 -116t-116 -48t-116 48t-48 116zM362 637h416l-2 12q-14 71 -71 107.5t-134 36.5q-68 0 -128.5 -36.5t-80.5 -119.5zM670 1284q0 68 48 116t116 48q67 0 115 -48t48 -116t-48 -116t-115 -48q-68 0 -116 48t-48 116z" />
<glyph unicode="&#xec;" horiz-adv-x="552" d="M-68 1454h355l164 -338h-226zM121 0v1024h311v-1024h-311z" />
<glyph unicode="&#xed;" horiz-adv-x="552" d="M102 1116l164 338h355l-293 -338h-226zM121 0v1024h311v-1024h-311z" />
<glyph unicode="&#xee;" horiz-adv-x="552" d="M-88 1264l364 206l365 -206l-106 -187l-259 148l-258 -148zM121 0v1024h311v-1024h-311z" />
<glyph unicode="&#xef;" horiz-adv-x="552" d="M-80 1284q0 68 48 116t116 48t116 -48t48 -116t-48 -116t-116 -48t-116 48t-48 116zM121 0v1024h311v-1024h-311zM305 1284q0 68 48.5 116t115.5 48t115.5 -48t48.5 -116t-48.5 -116t-115.5 -48t-115.5 48t-48.5 116z" />
<glyph unicode="&#xf0;" horiz-adv-x="1187" d="M61 512q0 134 63.5 249.5t173 188.5t241.5 86l-41 64h-281v196h156l-101 158h346l103 -158h211v-196h-86l184 -285q96 -148 96 -303q0 -143 -71 -264.5t-193.5 -192.5t-267.5 -71t-268 71t-194 192.5t-71 264.5zM373 512q0 -105 62.5 -172.5t158.5 -67.5t158.5 67.5 t62.5 172.5t-62.5 172.5t-158.5 67.5t-158.5 -67.5t-62.5 -172.5z" />
<glyph unicode="&#xf1;" horiz-adv-x="1222" d="M121 0v1024h309v-61q96 77 236 77q212 0 329 -128.5t117 -340.5v-571h-309v516q0 110 -46.5 176t-142.5 66q-46 0 -96.5 -23.5t-87.5 -64.5v-670h-309zM221 1135l8 59q14 108 85.5 173t154.5 65q51 0 102.5 -20.5t91.5 -41t64 -20.5q36 0 56 19.5t32 66.5h197l-8 -60 q-14 -108 -85 -172.5t-155 -64.5q-51 0 -102.5 20.5t-91.5 41t-64 20.5q-36 0 -56 -19.5t-32 -66.5h-197z" />
<glyph unicode="&#xf2;" horiz-adv-x="1187" d="M61 512q0 143 71 264.5t194 192.5t268 71t267.5 -71t193.5 -192.5t71 -264.5t-71 -264.5t-193.5 -192.5t-267.5 -71t-268 71t-194 192.5t-71 264.5zM250 1454h354l164 -338h-225zM373 512q0 -105 62.5 -172.5t158.5 -67.5t158.5 67.5t62.5 172.5t-62.5 172.5t-158.5 67.5 t-158.5 -67.5t-62.5 -172.5z" />
<glyph unicode="&#xf3;" horiz-adv-x="1187" d="M61 512q0 143 71 264.5t194 192.5t268 71t267.5 -71t193.5 -192.5t71 -264.5t-71 -264.5t-193.5 -192.5t-267.5 -71t-268 71t-194 192.5t-71 264.5zM373 512q0 -105 62.5 -172.5t158.5 -67.5t158.5 67.5t62.5 172.5t-62.5 172.5t-158.5 67.5t-158.5 -67.5t-62.5 -172.5z M420 1116l164 338h354l-293 -338h-225z" />
<glyph unicode="&#xf4;" horiz-adv-x="1187" d="M61 512q0 143 71 264.5t194 192.5t268 71t267.5 -71t193.5 -192.5t71 -264.5t-71 -264.5t-193.5 -192.5t-267.5 -71t-268 71t-194 192.5t-71 264.5zM229 1264l365 206l364 -206l-106 -187l-258 148l-258 -148zM373 512q0 -105 62.5 -172.5t158.5 -67.5t158.5 67.5 t62.5 172.5t-62.5 172.5t-158.5 67.5t-158.5 -67.5t-62.5 -172.5z" />
<glyph unicode="&#xf5;" horiz-adv-x="1187" d="M61 512q0 143 71 264.5t194 192.5t268 71t267.5 -71t193.5 -192.5t71 -264.5t-71 -264.5t-193.5 -192.5t-267.5 -71t-268 71t-194 192.5t-71 264.5zM199 1135l8 59q14 109 85 173.5t154 64.5q51 0 102.5 -20.5t92 -41t64.5 -20.5q36 0 56 19.5t32 66.5h196l-8 -60 q-14 -108 -85 -172.5t-155 -64.5q-51 0 -102.5 20.5t-91.5 41t-64 20.5q-36 0 -56 -19.5t-32 -66.5h-196zM373 512q0 -105 62.5 -172.5t158.5 -67.5t158.5 67.5t62.5 172.5t-62.5 172.5t-158.5 67.5t-158.5 -67.5t-62.5 -172.5z" />
<glyph unicode="&#xf6;" horiz-adv-x="1187" d="M61 512q0 143 71 264.5t194 192.5t268 71t267.5 -71t193.5 -192.5t71 -264.5t-71 -264.5t-193.5 -192.5t-267.5 -71t-268 71t-194 192.5t-71 264.5zM186 1284q0 68 48 116t116 48t116 -48t48 -116t-48 -116t-116 -48t-116 48t-48 116zM373 512q0 -105 62.5 -172.5 t158.5 -67.5t158.5 67.5t62.5 172.5t-62.5 172.5t-158.5 67.5t-158.5 -67.5t-62.5 -172.5zM674 1284q0 68 48 116t116 48q67 0 115 -48t48 -116t-48 -116t-115 -48q-68 0 -116 48t-48 116z" />
<glyph unicode="&#xf7;" horiz-adv-x="1097" d="M102 461v233h893v-233h-893zM385 236q0 67 48 115t116 48t116 -48t48 -115q0 -68 -48.5 -116t-115.5 -48t-115.5 48t-48.5 116zM385 920q0 67 48 115t116 48t116 -48t48 -115q0 -68 -48.5 -116t-115.5 -48t-115.5 48t-48.5 116z" />
<glyph unicode="&#xf8;" horiz-adv-x="1206" d="M47 125l107 106q-82 132 -82 281q0 143 71 264.5t193.5 192.5t267.5 71q154 0 281 -79l108 108l166 -170l-104 -104q82 -132 82 -283q0 -143 -71 -264.5t-194 -192.5t-268 -71q-155 0 -282 79l-109 -108zM383 512q0 -19 4 -47l279 278q-27 9 -62 9q-96 0 -158.5 -67.5 t-62.5 -172.5zM541 281q45 -9 63 -9q96 0 158.5 67.5t62.5 172.5q0 21 -4 49z" />
<glyph unicode="&#xf9;" horiz-adv-x="1222" d="M111 453v571h309v-516q0 -109 45.5 -175.5t134.5 -66.5q58 0 110.5 27.5t82.5 77.5v653h309v-1024h-309v76q-45 -42 -112 -67t-132 -25q-204 0 -321 128.5t-117 340.5zM262 1454h354l164 -338h-225z" />
<glyph unicode="&#xfa;" horiz-adv-x="1222" d="M111 453v571h309v-516q0 -109 45.5 -175.5t134.5 -66.5q58 0 110.5 27.5t82.5 77.5v653h309v-1024h-309v76q-45 -42 -112 -67t-132 -25q-204 0 -321 128.5t-117 340.5zM432 1116l164 338h354l-293 -338h-225z" />
<glyph unicode="&#xfb;" horiz-adv-x="1222" d="M111 453v571h309v-516q0 -109 45.5 -175.5t134.5 -66.5q58 0 110.5 27.5t82.5 77.5v653h309v-1024h-309v76q-45 -42 -112 -67t-132 -25q-204 0 -321 128.5t-117 340.5zM242 1264l364 206l365 -206l-107 -187l-258 148l-258 -148z" />
<glyph unicode="&#xfc;" horiz-adv-x="1222" d="M111 453v571h309v-516q0 -109 45.5 -175.5t134.5 -66.5q58 0 110.5 27.5t82.5 77.5v653h309v-1024h-309v76q-45 -42 -112 -67t-132 -25q-204 0 -321 128.5t-117 340.5zM199 1284q0 68 48 116t115 48q68 0 116 -48t48 -116t-48 -116t-116 -48q-67 0 -115 48t-48 116z M686 1284q0 68 48 116t116 48t116 -48t48 -116t-48 -116t-116 -48t-116 48t-48 116z" />
<glyph unicode="&#xfd;" horiz-adv-x="1060" d="M-10 1024h327l213 -647l213 647h328l-516 -1401h-328l140 377zM356 1116l164 338h354l-292 -338h-226z" />
<glyph unicode="&#xfe;" d="M121 -377v1831h309v-491q93 77 225 77q111 0 205 -43t157 -115.5t98.5 -168.5t35.5 -201t-35.5 -201t-98.5 -168.5t-157 -115.5t-205 -43q-132 0 -225 77v-438h-309zM430 352q64 -86 174 -86q107 0 171.5 70.5t64.5 175.5t-64.5 175.5t-171.5 70.5q-110 0 -174 -86v-320z " />
<glyph unicode="&#xff;" horiz-adv-x="1060" d="M-10 1024h327l213 -647l213 647h328l-516 -1401h-328l140 377zM123 1284q0 68 48.5 116t115.5 48t115.5 -48t48.5 -116t-48.5 -116t-115.5 -48t-115.5 48t-48.5 116zM610 1284q0 68 48 116t116 48t116 -48t48 -116t-48 -116t-116 -48t-116 48t-48 116z" />
<glyph unicode="&#x152;" horiz-adv-x="2076" d="M70 727q0 151 59 288.5t158.5 237t237 158.5t288.5 59q149 0 279 -53v37h901v-324h-555q72 -114 102 -245h365v-316h-365q-30 -131 -102 -245h557v-324h-903v37q-130 -53 -279 -53q-151 0 -288.5 59t-237 158.5t-158.5 237t-59 288.5zM399 727q0 -177 119.5 -302.5 t294.5 -125.5t294.5 125.5t119.5 302.5t-119.5 302.5t-294.5 125.5t-294.5 -125.5t-119.5 -302.5z" />
<glyph unicode="&#x153;" horiz-adv-x="1896" d="M61 512q0 143 71 264.5t194 192.5t268 71q216 0 371 -149q146 149 378 149q99 0 187 -32t157 -92.5t109.5 -155.5t40.5 -213q0 -43 -6 -90h-719q8 -65 45 -110t82.5 -63t95.5 -18q149 0 219 129l246 -166q-72 -113 -193 -179t-270 -66q-103 0 -198.5 39.5t-169.5 111.5 q-73 -71 -170.5 -111t-204.5 -40q-145 0 -268 71t-194 192.5t-71 264.5zM373 512q0 -105 62.5 -172.5t158.5 -67.5t158.5 67.5t62.5 172.5t-62.5 172.5t-158.5 67.5t-158.5 -67.5t-62.5 -172.5zM1116 637h416l-2 12q-14 71 -71 107.5t-134 36.5q-68 0 -128.5 -36.5 t-80.5 -119.5z" />
<glyph unicode="&#x178;" horiz-adv-x="1343" d="M-31 1454h383l318 -510l317 510h387l-538 -844v-610h-328v610zM264 1720q0 68 48 116t116 48t116 -48t48 -116t-48 -116t-116 -48t-116 48t-48 116zM752 1720q0 68 48 116t115 48t115.5 -48t48.5 -116t-48.5 -116t-115.5 -48t-115 48t-48 116z" />
<glyph unicode="&#x2c6;" horiz-adv-x="1048" d="M160 1264l364 206l365 -206l-107 -187l-258 148l-258 -148z" />
<glyph unicode="&#x2dc;" horiz-adv-x="1126" d="M168 1135l8 59q14 108 85.5 173t154.5 65q51 0 102.5 -20.5t91.5 -41t64 -20.5q36 0 56 19.5t32 66.5h196l-8 -60q-14 -108 -85 -172.5t-154 -64.5q-51 0 -102.5 20.5t-91.5 41t-64 20.5q-36 0 -56 -19.5t-32 -66.5h-197z" />
<glyph unicode="&#x2000;" horiz-adv-x="1012" />
<glyph unicode="&#x2001;" horiz-adv-x="2025" />
<glyph unicode="&#x2002;" horiz-adv-x="1012" />
<glyph unicode="&#x2003;" horiz-adv-x="2025" />
<glyph unicode="&#x2004;" horiz-adv-x="675" />
<glyph unicode="&#x2005;" horiz-adv-x="506" />
<glyph unicode="&#x2006;" horiz-adv-x="337" />
<glyph unicode="&#x2007;" horiz-adv-x="337" />
<glyph unicode="&#x2008;" horiz-adv-x="253" />
<glyph unicode="&#x2009;" horiz-adv-x="405" />
<glyph unicode="&#x200a;" horiz-adv-x="112" />
<glyph unicode="&#x2010;" horiz-adv-x="757" d="M88 430v295h582v-295h-582z" />
<glyph unicode="&#x2011;" horiz-adv-x="757" d="M88 430v295h582v-295h-582z" />
<glyph unicode="&#x2012;" horiz-adv-x="757" d="M88 430v295h582v-295h-582z" />
<glyph unicode="&#x2013;" horiz-adv-x="1167" d="M88 430v295h991v-295h-991z" />
<glyph unicode="&#x2014;" horiz-adv-x="1767" d="M88 430v295h1591v-295h-1591z" />
<glyph unicode="&#x2018;" horiz-adv-x="630" d="M137 782v357l131 315h178l-90 -315h138v-357h-357z" />
<glyph unicode="&#x2019;" horiz-adv-x="630" d="M137 1098v356h357v-356l-132 -316h-178l90 316h-137z" />
<glyph unicode="&#x201a;" horiz-adv-x="630" d="M137 0v356h357v-356l-132 -315h-178l90 315h-137z" />
<glyph unicode="&#x201c;" horiz-adv-x="1089" d="M137 782v357l131 315h178l-90 -315h138v-357h-357zM596 782v357l131 315h178l-90 -315h137v-357h-356z" />
<glyph unicode="&#x201d;" horiz-adv-x="1089" d="M137 1098v356h357v-356l-132 -316h-178l90 316h-137zM596 1098v356h356v-356l-131 -316h-178l90 316h-137z" />
<glyph unicode="&#x201e;" horiz-adv-x="1089" d="M137 0v356h357v-356l-132 -315h-178l90 315h-137zM596 0v356h356v-356l-131 -315h-178l90 315h-137z" />
<glyph unicode="&#x2022;" horiz-adv-x="823" d="M133 727q0 115 81.5 197t197.5 82q115 0 196.5 -81.5t81.5 -197.5q0 -115 -81 -196.5t-197 -81.5t-197.5 81.5t-81.5 196.5z" />
<glyph unicode="&#x2026;" horiz-adv-x="1871" d="M117 205q0 92 64.5 156.5t156.5 64.5t156.5 -64.5t64.5 -156.5t-64.5 -156.5t-156.5 -64.5t-156.5 64.5t-64.5 156.5zM715 205q0 92 64.5 156.5t156.5 64.5t156.5 -64.5t64.5 -156.5t-64.5 -156.5t-156.5 -64.5t-156.5 64.5t-64.5 156.5zM1313 205q0 92 64.5 156.5 t156.5 64.5t156.5 -64.5t64.5 -156.5t-64.5 -156.5t-156.5 -64.5t-156.5 64.5t-64.5 156.5z" />
<glyph unicode="&#x202f;" horiz-adv-x="405" />
<glyph unicode="&#x2039;" horiz-adv-x="696" d="M70 512l336 494l204 -140l-241 -354l241 -354l-204 -140z" />
<glyph unicode="&#x203a;" horiz-adv-x="696" d="M86 158l242 354l-242 354l205 140l336 -494l-336 -494z" />
<glyph unicode="&#x205f;" horiz-adv-x="506" />
<glyph unicode="&#x20ac;" horiz-adv-x="1452" d="M51 524l45 135h99q0 11 -1 34t-1 34t1 34t1 34h-144l45 135h125q67 236 265 388t450 152q251 0 450 -153l-98 -291q-59 69 -153.5 112.5t-196.5 43.5q-128 0 -233.5 -67t-157.5 -185h708l-45 -135h-700q-4 -46 -4 -68t4 -68h653l-45 -135h-571q52 -118 156.5 -185 t232.5 -67q190 0 336 123v-332q-155 -79 -336 -79q-252 0 -450 152t-265 388h-170z" />
<glyph unicode="&#x2122;" horiz-adv-x="1552" d="M61 1270v184h525v-184h-168v-543h-189v543h-168zM700 727v735l365 -368l365 368v-735h-189v289l-176 -178l-176 178v-289h-189z" />
<glyph unicode="&#xe000;" horiz-adv-x="1024" d="M0 0v1024h1024v-1024h-1024z" />
</font>
</defs>
</svg>
